<?xml version="1.0" encoding="UTF-8" standalone="no"?>
<svg
   xmlns:dc="http://purl.org/dc/elements/1.1/"
   xmlns:cc="http://creativecommons.org/ns#"
   xmlns:rdf="http://www.w3.org/1999/02/22-rdf-syntax-ns#"
   xmlns:svg="http://www.w3.org/2000/svg"
   xmlns="http://www.w3.org/2000/svg"
   xmlns:sodipodi="http://sodipodi.sourceforge.net/DTD/sodipodi-0.dtd"
   xmlns:inkscape="http://www.inkscape.org/namespaces/inkscape"
   width="84.868mm"
   height="84.868mm"
   version="1.1"
   viewBox="0 0 299.87 300.71"
   id="svg2240"
   sodipodi:docname="msa-arch.svg"
   inkscape:version="1.0.1 (3bc2e813f5, 2020-09-07)">
  <defs
     id="defs2244" />
  <sodipodi:namedview
     pagecolor="#ffffff"
     bordercolor="#666666"
     borderopacity="1"
     objecttolerance="10"
     gridtolerance="10"
     guidetolerance="10"
     inkscape:pageopacity="0"
     inkscape:pageshadow="2"
     inkscape:window-width="1916"
     inkscape:window-height="987"
     id="namedview2242"
     showgrid="false"
     inkscape:zoom="1.8467283"
     inkscape:cx="-13.937601"
     inkscape:cy="147.27834"
     inkscape:window-x="1920"
     inkscape:window-y="72"
     inkscape:window-maximized="1"
     inkscape:current-layer="g2238"
     inkscape:document-rotation="0" />
  <metadata
     id="metadata2212">
    <rdf:RDF>
      <cc:Work
         rdf:about="">
        <dc:format>image/svg+xml</dc:format>
        <dc:type
           rdf:resource="http://purl.org/dc/dcmitype/StillImage" />
        <dc:title />
      </cc:Work>
    </rdf:RDF>
  </metadata>
  <g
     transform="translate(335.1,-1120.6)"
     id="g2238">
    <circle
       cx="-185.03999"
       cy="1271"
       fill="none"
       stroke="#305680"
       stroke-linecap="round"
       stroke-linejoin="round"
       stroke-width="15"
       id="circle2214"
       style="stroke:#272e3d;stroke-opacity:1;stroke-width:14.99983203;stroke-miterlimit:4;stroke-dasharray:none"
       r="142.86" />
    <g
       id="g2236">
      <path
         d="m -251.03,1218.2 c -9.7165,0 -18.784,2.7124 -26.605,7.3125 -2.2255,-1.7056 -4.9909,-2.7481 -7.9922,-2.7481 -7.2605,0 -13.217,5.9563 -13.217,13.217 0,2.9531 1.012,5.6743 2.668,7.8809 -4.773,7.9255 -7.5938,17.164 -7.5938,27.076 0,9.5678 2.6291,18.51 7.0996,26.25 -1.7094,2.2267 -2.7539,4.9929 -2.7539,7.998 0,7.2604 5.9543,13.217 13.215,13.217 2.8811,0 5.5409,-0.9633 7.7188,-2.5469 8.0092,4.916 17.389,7.8204 27.461,7.8204 9.8143,0 18.966,-2.7652 26.84,-7.4512 2.1439,1.5031 4.736,2.4082 7.5352,2.4082 7.2604,0 13.217,-5.9544 13.217,-13.215 0,-2.7848 -0.90009,-5.3649 -2.3887,-7.5019 4.7366,-7.904 7.5352,-17.107 7.5352,-26.978 0,-9.9539 -2.8424,-19.226 -7.6523,-27.174 1.5595,-2.1682 2.5059,-4.8111 2.5059,-7.6679 0,-7.2605 -5.9564,-13.215 -13.217,-13.215 -2.9193,0 -5.6115,0.9876 -7.8047,2.6094 -7.8131,-4.5871 -16.868,-7.291 -26.57,-7.291 z m 0,8.0098 c 7.9653,0 15.396,2.1259 21.867,5.7617 -0.43468,1.304 -0.70703,2.6808 -0.70703,4.125 0,7.2603 5.9544,13.217 13.215,13.217 1.5026,0 2.9323,-0.2948 4.2812,-0.7637 3.8228,6.5915 6.0723,14.206 6.0723,22.389 0,8.0593 -2.1801,15.57 -5.8965,22.094 -1.3992,-0.5083 -2.8896,-0.8281 -4.457,-0.8281 -7.2603,0 -13.215,5.9545 -13.215,13.215 0,1.555 0.31374,3.0341 0.81445,4.4239 -6.4962,3.6739 -13.965,5.8242 -21.975,5.8242 -8.3139,0 -16.045,-2.3185 -22.707,-6.2559 0.45613,-1.3323 0.74414,-2.7437 0.74414,-4.2246 0,-7.2604 -5.9563,-13.217 -13.217,-13.217 -1.3631,0 -2.6664,0.2457 -3.9062,0.6348 -3.5645,-6.4235 -5.6445,-13.785 -5.6445,-21.666 0,-8.1952 2.256,-15.822 6.0898,-22.42 1.2804,0.4167 2.6302,0.6777 4.043,0.6777 7.2604,0 13.217,-5.9544 13.217,-13.215 0,-1.3678 -0.24692,-2.6758 -0.63867,-3.9199 6.5062,-3.6894 13.992,-5.8515 22.02,-5.8515 z m -34.598,3.6796 c 3.4138,0 6.0918,2.6779 6.0918,6.0918 0,3.4139 -2.678,6.0918 -6.0918,6.0918 -3.4138,0 -6.0918,-2.6779 -6.0918,-6.0918 0,-3.4139 2.6779,-6.0918 6.0918,-6.0918 z m 68.973,0.1153 c 3.4139,0 6.0918,2.6779 6.0918,6.0918 0,3.4138 -2.6782,6.0937 -6.0918,6.0937 -3.4136,0 -6.0918,-2.6799 -6.0918,-6.0937 0,-3.4139 2.678,-6.0918 6.0918,-6.0918 z m -69.555,69.09 c 3.4138,0 6.0918,2.678 6.0918,6.0918 0,3.4138 -2.678,6.0918 -6.0918,6.0918 -3.4138,0 -6.0918,-2.678 -6.0918,-6.0918 0,-3.4138 2.6779,-6.0918 6.0918,-6.0918 z m 69.555,0.2324 c 3.4139,0 6.0918,2.6779 6.0918,6.0918 0,3.4137 -2.678,6.0918 -6.0918,6.0918 -3.4138,0 -6.0918,-2.6781 -6.0918,-6.0918 0,-3.4139 2.678,-6.0918 6.0918,-6.0918 z"
         color="#000000"
         color-rendering="auto"
         fill="#237de0"
         image-rendering="auto"
         shape-rendering="auto"
         solid-color="#000000"
         style="text-indent:0;text-decoration:none;text-decoration-line:none;text-decoration-style:solid;text-decoration-color:#000000;text-transform:none;white-space:normal;isolation:auto;mix-blend-mode:normal;fill:#ff4f12;fill-opacity:1"
         id="path2216" />
      <path
         d="m -277.78,1255.3 c -0.4323,0.4511 -0.68561,1.0742 -0.65414,1.7577 0.0276,0.592 0.26459,1.164 0.6772,1.5975 1.9716,1.9849 5.8592,5.855 5.8592,5.855 l 3.4316,-3.4249 c 0,0 -3.7586,-3.7525 -5.8456,-5.8397 -0.46474,-0.4727 -1.0864,-0.67 -1.7419,-0.673 -0.68327,0 -1.2943,0.2762 -1.7265,0.7274 z m 9.3139,5.7853 -10.615,10.608 c -1.1517,1.1512 -1.1517,3.0172 0,4.1683 l 23.29,23.274 c 1.1519,1.1511 3.0195,1.1513 4.1716,0 l 28.783,-28.762 c 1.1518,-1.1513 1.1517,-3.0175 -1.9e-4,-4.1686 l -5.3975,-5.3933 -17.893,-17.88 c -1.152,-1.1509 -3.0194,-1.1509 -4.1714,0 l -7.1827,7.1776 z m 10.985,-10.977 c 0,0 -3.7586,-3.7525 -5.8456,-5.8398 -0.46474,-0.4727 -1.0864,-0.67 -1.7419,-0.6729 -1.3665,-0.01 -2.4436,1.118 -2.3807,2.4851 0.0276,0.5919 0.26459,1.1639 0.67722,1.5974 1.9716,1.9849 5.8592,5.8551 5.8592,5.8551 z m 20.047,1.5093 c 0,0 3.7552,-3.756 5.8439,-5.8414 0.47301,-0.4644 0.67046,-1.0856 0.67342,-1.7406 0.008,-1.3656 -1.1188,-2.4418 -2.4868,-2.3789 -0.59244,0.028 -1.1649,0.2644 -1.5986,0.6766 -1.9864,1.9702 -5.8593,5.8551 -5.8593,5.8551 z m 9.1997,9.1931 c 0,0 3.7552,-3.756 5.844,-5.8414 0.47301,-0.4644 0.67043,-1.0856 0.6734,-1.7406 0.006,-1.3655 -1.1188,-2.4418 -2.4868,-2.3789 -0.59244,0.028 -1.1648,0.2644 -1.5986,0.6766 -1.9864,1.9703 -5.8593,5.8551 -5.8593,5.8551 z m -5.2178,20.17 c 0,0 3.7587,3.7524 5.8461,5.8392 0.46476,0.4726 1.0864,0.6699 1.7419,0.6729 1.3665,0.01 2.4436,-1.118 2.3807,-2.4851 -0.0276,-0.5919 -0.26486,-1.1642 -0.67747,-1.5977 -1.9716,-1.9849 -5.859,-5.8548 -5.859,-5.8548 l -3.4317,3.4249 z m -10.985,10.977 c 0,0 3.7587,3.7524 5.8461,5.8392 0.46475,0.4726 1.0864,0.6699 1.7419,0.6729 1.3666,0.01 2.4436,-1.118 2.3806,-2.4851 -0.0276,-0.592 -0.26457,-1.164 -0.67716,-1.5975 -1.9716,-1.9849 -5.8592,-5.855 -5.8592,-5.855 l -3.4317,3.4249 z m -20.185,-1.6466 c 0,0 -3.7552,3.756 -5.8434,5.8419 -0.47302,0.4644 -0.67048,1.0856 -0.67343,1.7406 -0.008,1.3655 1.1188,2.4419 2.4868,2.3789 0.59243,-0.028 1.1649,-0.2643 1.5986,-0.6766 1.9864,-1.9702 5.8593,-5.8551 5.8593,-5.8551 z m -9.1997,-9.1931 c 0,0 -3.7552,3.7559 -5.8434,5.8419 -0.47297,0.4644 -0.67041,1.0856 -0.67342,1.7406 -0.008,1.3655 1.1188,2.4419 2.4869,2.3789 0.59244,-0.028 1.1648,-0.2644 1.5986,-0.6767 1.9864,-1.97 5.8593,-5.8549 5.8593,-5.8549 z m 25.275,-26.217 c 0.48657,-0.494 1.1494,-0.7701 1.8244,-0.7603 0.48178,0.01 0.94247,0.1593 1.3219,0.4371 l 4.7801,3.5032 c 0.92741,0.665 1.2008,1.9279 0.64632,2.9854 -0.55441,1.0575 -1.7741,1.5994 -2.883,1.2804 l 1.7743,6.9335 c 0.32238,1.2599 -0.45317,2.5963 -1.7335,2.987 l -12.934,3.9464 2.389,9.2306 c 0.33981,1.2651 -0.43507,2.6186 -1.7252,3.0131 -1.2901,0.3944 -2.6005,-0.3216 -2.917,-1.5938 l -2.979,-11.514 c -0.32639,-1.261 0.44888,-2.6013 1.7314,-2.9929 l 12.94,-3.9483 -1.1942,-4.6665 c -0.80061,0.8871 -2.0957,1.1026 -3.0672,0.51 -0.97148,-0.5927 -1.3369,-1.821 -0.86516,-2.9088 l 2.3517,-5.6323 c 0.12549,-0.3004 0.30923,-0.5758 0.53957,-0.8099 z"
         color="#000000"
         color-rendering="auto"
         fill="#305680"
         fill-rule="evenodd"
         image-rendering="auto"
         shape-rendering="auto"
         solid-color="#000000"
         style="text-indent:0;text-decoration:none;text-decoration-line:none;text-decoration-style:solid;text-decoration-color:#000000;text-transform:none;white-space:normal;isolation:auto;mix-blend-mode:normal;fill:#7700ff;fill-opacity:1"
         id="path2218" />
      <path
         d="m -171.23,1213.6 -37.702,17.587"
         fill="#237de0"
         stroke="#237de0"
         stroke-width="7.5"
         id="path2220"
         style="stroke:#ff4f12;stroke-opacity:1" />
      <path
         transform="matrix(1.3365,0,0,1.3365,-490.96,732.98)"
         d="m 265.83,321.43 c -17.797,0 -32.285,14.49 -32.285,32.287 0,17.797 14.488,32.285 32.285,32.285 17.797,0 32.287,-14.488 32.287,-32.285 0,-17.797 -14.49,-32.287 -32.287,-32.287 z m 0,6.1074 c 14.497,0 26.178,11.683 26.178,26.18 0,14.497 -11.681,26.178 -26.178,26.178 -14.497,0 -26.178,-11.681 -26.178,-26.178 0,-14.497 11.681,-26.18 26.178,-26.18 z"
         color="#000000"
         color-rendering="auto"
         fill="#237de0"
         image-rendering="auto"
         shape-rendering="auto"
         solid-color="#000000"
         style="text-indent:0;text-decoration:none;text-decoration-line:none;text-decoration-style:solid;text-decoration-color:#000000;text-transform:none;white-space:normal;isolation:auto;mix-blend-mode:normal;stroke:none;stroke-opacity:1;fill:#ff4f12;fill-opacity:1"
         id="path2222" />
      <path
         d="m -159.13,1218.6 c 2.5839,-2.1876 -0.0163,-9.4391 -3.1032,-9.6954 -1.0127,-0.086 -1.9378,-0.4489 -2.7009,-1.0107 -0.45416,-2.5989 0.13568,-6.9297 0.65532,-8.9773 0.86855,-0.4602 1.8724,-0.6855 2.9242,-0.5979 3.3678,0.281 6.9104,-6.3893 4.66,-9.0491 -0.7034,-0.8309 -1.1128,-2.0479 -1.2229,-2.8198 1.1375,-1.4873 4.2063,-4.2137 6.7297,-5.7205 0.76579,0.1461 1.8916,0.8413 2.5975,1.6788 2.3812,2.8119 9.4324,0.059 9.701,-3.1694 0.0894,-1.0784 0.61772,-2.2927 1.1179,-2.846 1.9561,-0.2883 6.692,0.1138 8.7833,0.6491 0.31193,0.9307 0.7748,1.9644 0.68164,3.0771 -0.26736,3.2279 6.3586,7.0006 9.094,4.6853 0.90014,-0.7613 2.018,-1.1926 3.0709,-1.2454 1.4851,1.2661 4.5854,4.9902 5.4963,6.6527 0.0133,0.5648 -0.83934,1.9685 -1.7047,2.7004 -3.723,3.1522 -0.80906,9.4178 3.1191,9.7442 1.1098,0.093 2.1868,0.4397 2.9138,1.1753 0.26389,1.9042 -0.0998,6.5359 -0.7146,8.728 -0.83294,0.5191 -1.9639,0.7759 -3.0773,0.6824 -3.5088,-0.2929 -7.2568,6.0545 -4.6838,9.0946 0.66918,0.7914 0.98442,1.8073 1.2697,2.8147 -1.6592,1.8602 -4.8278,4.8708 -6.9273,5.7974 -0.96758,-0.3047 -1.7926,-0.976 -2.447,-1.7498 -2.2523,-2.6608 -9.4468,-0.4559 -9.7382,3.0522 -0.081,0.9806 -0.35848,2.0059 -0.88877,2.7632 -2.4719,0.4046 -7.3118,0.068 -9.2459,-0.6686 -0.51538,-0.961 -0.53254,-1.9588 -0.44888,-2.9763 0.31642,-3.7887 -6.1612,-7.1068 -9.0482,-4.6623 -0.79106,0.6684 -1.8151,1.0515 -2.7431,1.2359 -1.5823,-1.4735 -4.3159,-4.1496 -5.7944,-6.7492 0.33463,-1.1721 0.83979,-1.8864 1.6747,-2.5937 z m 11.018,-2.7368 c 5.5698,6.5818 15.419,7.4 21.999,1.8303 6.579,-5.5704 7.3964,-15.421 1.8264,-22.002 -5.57,-6.5811 -15.419,-7.3998 -21.998,-1.83 -6.5798,5.57 -7.3982,15.42 -1.8272,22.002 z"
         clip-rule="evenodd"
         fill="#305680"
         fill-rule="evenodd"
         stroke-width="1.9508"
         id="path2224"
         style="fill:#7700ff;fill-opacity:1" />
      <path
         transform="matrix(1.3365,0,0,1.3365,-490.96,863.49)"
         d="m 265.83,321.31 c -17.862,0 -32.404,14.545 -32.404,32.406 0,17.862 14.543,32.404 32.404,32.404 17.862,0 32.406,-14.543 32.406,-32.404 0,-17.862 -14.545,-32.406 -32.406,-32.406 z m 0,6.3457 c 14.432,0 26.059,11.628 26.059,26.061 0,14.433 -11.626,26.059 -26.059,26.059 -14.433,0 -26.059,-11.626 -26.059,-26.059 0,-14.433 11.626,-26.061 26.059,-26.061 z"
         color="#000000"
         color-rendering="auto"
         fill="#237de0"
         image-rendering="auto"
         shape-rendering="auto"
         solid-color="#000000"
         style="text-indent:0;text-decoration:none;text-decoration-line:none;text-decoration-style:solid;text-decoration-color:#000000;text-transform:none;white-space:normal;isolation:auto;mix-blend-mode:normal;fill:#ff4f12;fill-opacity:1"
         id="path2226" />
      <g
         transform="matrix(0.12106,0.040771,-0.040771,0.12106,-154.71,1298.8)"
         fill="#305680"
         id="g2230"
         style="fill:#7700ff;fill-opacity:1">
        <path
           d="m 362.3,125.06 c -2.851,-2.853 -6.092,-4.28 -9.706,-4.287 -0.77,0 -1.902,0.193 -3.432,0.572 l -113.06,27.979 48.817,-132.19 c 0.951,-1.903 1.431,-3.614 1.431,-5.139 0,-3.234 -1.242,-6.04 -3.713,-8.42 -2.474,-2.383 -5.52,-3.571 -9.134,-3.571 h -93.645 c -3.045,0 -5.708,0.855 -7.994,2.568 -2.284,1.715 -3.809,3.905 -4.568,6.567 l -57.386,235.55 c -0.953,4.564 0.284,8.277 3.711,11.135 2.473,2.099 5.421,3.139 8.848,3.139 1.524,0 2.666,-0.089 3.427,-0.281 l 115.91,-28.838 -56.244,230.69 c -0.76,3.045 -0.333,5.899 1.287,8.562 1.619,2.669 4.047,4.476 7.281,5.427 1.903,0.377 3.239,0.568 3.999,0.568 5.52,0 9.514,-2.375 11.991,-7.136 l 154.17,-330.33 c 2.095,-4.567 1.434,-8.756 -1.998,-12.561 z"
           fill="#305680"
           id="path2228"
           style="fill:#7700ff;fill-opacity:1" />
      </g>
      <path
         d="m -209.4,1311.7 37.702,17.587"
         fill="#237de0"
         stroke="#237de0"
         stroke-width="7.5"
         id="path2232"
         style="stroke:#ff4f12;stroke-opacity:1" />
      <path
         d="m -135.64,1246.3 -0.0396,48.958"
         fill="#305680"
         stroke="#237de0"
         stroke-width="7.5"
         id="path2234"
         style="fill:#ff4f12;fill-opacity:1;stroke:#ff4f12;stroke-opacity:1" />
    </g>
  </g>
</svg>
