<?xml version="1.0" encoding="UTF-8" standalone="no"?>
<svg
   xmlns:dc="http://purl.org/dc/elements/1.1/"
   xmlns:cc="http://creativecommons.org/ns#"
   xmlns:rdf="http://www.w3.org/1999/02/22-rdf-syntax-ns#"
   xmlns:svg="http://www.w3.org/2000/svg"
   xmlns="http://www.w3.org/2000/svg"
   xmlns:sodipodi="http://sodipodi.sourceforge.net/DTD/sodipodi-0.dtd"
   xmlns:inkscape="http://www.inkscape.org/namespaces/inkscape"
   id="Solutions"
   xml:space="preserve"
   viewBox="0 0 92.429688 71.372722"
   height="71.373"
   width="92.43"
   version="1.1"
   y="0px"
   x="0px"
   sodipodi:docname="rtk-head-solutions2.svg"
   inkscape:version="1.0.1 (3bc2e813f5, 2020-09-07)"><metadata
     id="metadata181"><rdf:RDF><cc:Work
         rdf:about=""><dc:format>image/svg+xml</dc:format><dc:type
           rdf:resource="http://purl.org/dc/dcmitype/StillImage" /><dc:title /></cc:Work></rdf:RDF></metadata><defs
     id="defs179" /><sodipodi:namedview
     pagecolor="#ffffff"
     bordercolor="#666666"
     borderopacity="1"
     objecttolerance="10"
     gridtolerance="10"
     guidetolerance="10"
     inkscape:pageopacity="0"
     inkscape:pageshadow="2"
     inkscape:window-width="1920"
     inkscape:window-height="1018"
     id="namedview177"
     showgrid="false"
     inkscape:zoom="11.909265"
     inkscape:cx="30.051115"
     inkscape:cy="29.276925"
     inkscape:window-x="-6"
     inkscape:window-y="-6"
     inkscape:window-maximized="1"
     inkscape:current-layer="g174"
     inkscape:document-rotation="0" /><g
     transform="matrix(.18053 0 0 .18053 101.77 -10.631)"
     id="g2" /><g
     transform="matrix(.18053 0 0 .18053 101.77 -10.631)"
     id="g4" /><g
     transform="matrix(.18053 0 0 .18053 101.77 -10.631)"
     id="g6" /><g
     transform="matrix(.18053 0 0 .18053 101.77 -10.631)"
     id="g8" /><g
     transform="matrix(.18053 0 0 .18053 101.77 -10.631)"
     id="g10" /><g
     transform="matrix(.18053 0 0 .18053 101.77 -10.631)"
     id="g12" /><g
     transform="matrix(.18053 0 0 .18053 101.77 -10.631)"
     id="g14" /><g
     fill="#fff"
     transform="translate(-8.2258e-7 -.22266)"
     id="g174"
     style="fill:#ff4f12;fill-opacity:1"><g
       id="g22"
       style="fill:#ff4f12;fill-opacity:1"><path
         d="m25.023 35.963c0 0.88656-0.71858 1.6051-1.6051 1.6051-0.88633 0-1.6049-0.71858-1.6049-1.6051 0-0.88633 0.71858-1.6051 1.6049-1.6051 0.88656 0 1.6051 0.71882 1.6051 1.6051"
         id="path16"
         style="fill:#ff4f12;fill-opacity:1" /><path
         d="m36.462 35.963c0 0.88656-0.71882 1.6051-1.6051 1.6051-0.88633 0-1.6049-0.71858-1.6049-1.6051 0-0.88633 0.71858-1.6051 1.6049-1.6051 0.88633 0 1.6051 0.71882 1.6051 1.6051"
         id="path18"
         style="fill:#ff4f12;fill-opacity:1" /><path
         d="m42.181 35.963c0 0.88656-0.71835 1.6051-1.6049 1.6051-0.88633 0-1.6049-0.71858-1.6049-1.6051 0-0.88633 0.71858-1.6051 1.6049-1.6051 0.88656 0 1.6049 0.71882 1.6049 1.6051"
         id="path20"
         style="fill:#ff4f12;fill-opacity:1" /></g><g
       id="g48"
       style="fill:#ff4f12;fill-opacity:1"><path
         style="color-rendering:auto;text-decoration-color:#000000;color:#000000;font-variant-numeric:normal;shape-rendering:auto;font-variant-ligatures:normal;text-decoration-line:none;font-variant-position:normal;mix-blend-mode:normal;solid-color:#000000;font-feature-settings:normal;shape-padding:0;font-variant-alternates:normal;text-indent:0;dominant-baseline:auto;font-variant-caps:normal;image-rendering:auto;white-space:normal;text-decoration-style:solid;text-orientation:mixed;isolation:auto;text-transform:none;fill:#ff4f12;fill-opacity:1"
         d="m40.323 35.963v13.643h0.50564v-13.643z"
         id="path24" /><path
         style="color-rendering:auto;text-decoration-color:#000000;color:#000000;font-variant-numeric:normal;shape-rendering:auto;font-variant-ligatures:normal;text-decoration-line:none;font-variant-position:normal;mix-blend-mode:normal;solid-color:#000000;font-feature-settings:normal;shape-padding:0;font-variant-alternates:normal;text-indent:0;dominant-baseline:auto;font-variant-caps:normal;image-rendering:auto;white-space:normal;text-decoration-style:solid;text-orientation:mixed;isolation:auto;text-transform:none;fill:#ff4f12;fill-opacity:1"
         d="m40.548 49.371c-3.2447 0-5.8803 2.6353-5.8803 5.8803 0 3.2447 2.6355 5.8803 5.8803 5.8803 3.2447 0 5.8806-2.6355 5.8806-5.8803 0-3.2449-2.6359-5.8803-5.8806-5.8803zm0 0.47072c2.9902 0 5.4095 2.4191 5.4095 5.4095 0 2.9902-2.4194 5.4092-5.4095 5.4092-2.9902 0-5.4092-2.419-5.4092-5.4092 0-2.9904 2.419-5.4095 5.4092-5.4095z"
         id="path26" /><path
         style="color-rendering:auto;text-decoration-color:#000000;color:#000000;font-variant-numeric:normal;shape-rendering:auto;font-variant-ligatures:normal;text-decoration-line:none;font-variant-position:normal;mix-blend-mode:normal;solid-color:#000000;font-feature-settings:normal;shape-padding:0;font-variant-alternates:normal;text-indent:0;dominant-baseline:auto;font-variant-caps:normal;image-rendering:auto;white-space:normal;text-decoration-style:solid;text-orientation:mixed;isolation:auto;text-transform:none;fill:#ff4f12;fill-opacity:1"
         d="m31.4 59.835c-3.2447 0-5.8803 2.6354-5.8803 5.8803 0 3.2447 2.6355 5.8799 5.8803 5.8799 3.2447 0 5.8802-2.6352 5.8802-5.8799 0-3.2448-2.6355-5.8803-5.8802-5.8803zm0 0.47105c2.9902 0 5.4092 2.4189 5.4092 5.4092 0 2.9902-2.419 5.4089-5.4092 5.4089s-5.4092-2.4187-5.4092-5.4089c0-2.9903 2.419-5.4092 5.4092-5.4092z"
         id="path28" /><path
         style="color-rendering:auto;text-decoration-color:#000000;color:#000000;font-variant-numeric:normal;shape-rendering:auto;font-variant-ligatures:normal;text-decoration-line:none;font-variant-position:normal;mix-blend-mode:normal;solid-color:#000000;font-feature-settings:normal;shape-padding:0;font-variant-alternates:normal;text-indent:0;dominant-baseline:auto;font-variant-caps:normal;image-rendering:auto;white-space:normal;text-decoration-style:solid;text-orientation:mixed;isolation:auto;text-transform:none;fill:#ff4f12;fill-opacity:1"
         d="m20.364 49.371c-3.2447 0-5.8803 2.6353-5.8803 5.8803 0 3.2447 2.6355 5.8803 5.8803 5.8803 3.2447 0 5.8803-2.6355 5.8803-5.8803 0-3.2449-2.6355-5.8803-5.8803-5.8803zm0 0.47072c2.9902 0 5.4092 2.4191 5.4092 5.4095 0 2.9902-2.419 5.4092-5.4092 5.4092s-5.4092-2.419-5.4092-5.4092c0-2.9904 2.419-5.4095 5.4092-5.4095z"
         id="path30" /><path
         style="color-rendering:auto;text-decoration-color:#000000;color:#000000;font-variant-numeric:normal;shape-rendering:auto;font-variant-ligatures:normal;text-decoration-line:none;font-variant-position:normal;mix-blend-mode:normal;solid-color:#000000;font-feature-settings:normal;shape-padding:0;font-variant-alternates:normal;text-indent:0;dominant-baseline:auto;font-variant-caps:normal;image-rendering:auto;white-space:normal;text-decoration-style:solid;text-orientation:mixed;isolation:auto;text-transform:none;fill:#ff4f12;fill-opacity:1"
         d="m11.217 59.835c-3.2448 0-5.8803 2.6354-5.8803 5.8803 0 3.2447 2.6354 5.8799 5.8803 5.8799 3.2447 0 5.8803-2.6352 5.8803-5.8799 0-3.2448-2.6356-5.8803-5.8803-5.8803zm0 0.47105c2.9901 0 5.4092 2.4189 5.4092 5.4092 0 2.9902-2.4191 5.4089-5.4092 5.4089-2.9903 0-5.4092-2.4187-5.4092-5.4089 0-2.9903 2.4189-5.4092 5.4092-5.4092z"
         id="path32" /><path
         style="color-rendering:auto;text-decoration-color:#000000;color:#000000;font-variant-numeric:normal;shape-rendering:auto;font-variant-ligatures:normal;text-decoration-line:none;font-variant-position:normal;mix-blend-mode:normal;solid-color:#000000;font-feature-settings:normal;shape-padding:0;font-variant-alternates:normal;text-indent:0;dominant-baseline:auto;font-variant-caps:normal;image-rendering:auto;white-space:normal;text-decoration-style:solid;text-orientation:mixed;isolation:auto;text-transform:none;fill:#ff4f12;fill-opacity:1"
         d="m81.158 49.371c-3.2447 0-5.8803 2.6353-5.8803 5.8803 0 3.2447 2.6355 5.8803 5.8803 5.8803 3.2447 0 5.8799-2.6355 5.8799-5.8803 0-3.2449-2.6352-5.8803-5.8799-5.8803zm0 0.47072c2.9902 0 5.4092 2.4191 5.4092 5.4095 0 2.9902-2.419 5.4092-5.4092 5.4092s-5.4095-2.419-5.4095-5.4092c0-2.9904 2.4194-5.4095 5.4095-5.4095z"
         id="path34" /><path
         style="color-rendering:auto;text-decoration-color:#000000;color:#000000;font-variant-numeric:normal;shape-rendering:auto;font-variant-ligatures:normal;text-decoration-line:none;font-variant-position:normal;mix-blend-mode:normal;solid-color:#000000;font-feature-settings:normal;shape-padding:0;font-variant-alternates:normal;text-indent:0;dominant-baseline:auto;font-variant-caps:normal;image-rendering:auto;white-space:normal;text-decoration-style:solid;text-orientation:mixed;isolation:auto;text-transform:none;fill:#ff4f12;fill-opacity:1"
         d="m83.507 34.493c-3.2447 0-5.8803 2.6353-5.8803 5.8803 0 3.2447 2.6355 5.8803 5.8803 5.8803 3.2449 0 5.8803-2.6355 5.8803-5.8803 0-3.2449-2.6353-5.8803-5.8803-5.8803zm0 0.47105c2.9904 0 5.4092 2.4188 5.4092 5.4092 0 2.9902-2.4188 5.4092-5.4092 5.4092-2.9902 0-5.4092-2.419-5.4092-5.4092 0-2.9904 2.419-5.4092 5.4092-5.4092z"
         id="path36" /><path
         style="color-rendering:auto;text-decoration-color:#000000;color:#000000;font-variant-numeric:normal;shape-rendering:auto;font-variant-ligatures:normal;text-decoration-line:none;font-variant-position:normal;mix-blend-mode:normal;solid-color:#000000;font-feature-settings:normal;shape-padding:0;font-variant-alternates:normal;text-indent:0;dominant-baseline:auto;font-variant-caps:normal;image-rendering:auto;white-space:normal;text-decoration-style:solid;text-orientation:mixed;isolation:auto;text-transform:none;fill:#ff4f12;fill-opacity:1"
         d="m72.01 59.835c-3.2447 0-5.8803 2.6354-5.8803 5.8803 0 3.2447 2.6355 5.8799 5.8803 5.8799 3.2447 0 5.8806-2.6352 5.8806-5.8799 0-3.2448-2.6359-5.8803-5.8806-5.8803zm0 0.47105c2.9902 0 5.4095 2.4189 5.4095 5.4092 0 2.9902-2.4194 5.4089-5.4095 5.4089-2.9902 0-5.4092-2.4187-5.4092-5.4089 0-2.9903 2.419-5.4092 5.4092-5.4092z"
         id="path38" /><path
         style="color-rendering:auto;text-decoration-color:#000000;color:#000000;font-variant-numeric:normal;shape-rendering:auto;font-variant-ligatures:normal;text-decoration-line:none;font-variant-position:normal;mix-blend-mode:normal;solid-color:#000000;font-feature-settings:normal;shape-padding:0;font-variant-alternates:normal;text-indent:0;dominant-baseline:auto;font-variant-caps:normal;image-rendering:auto;white-space:normal;text-decoration-style:solid;text-orientation:mixed;isolation:auto;text-transform:none;fill:#ff4f12;fill-opacity:1"
         d="m60.975 49.371c-3.2447 0-5.8806 2.6353-5.8806 5.8803 0 3.2447 2.6359 5.8803 5.8806 5.8803s5.8803-2.6355 5.8803-5.8803c0-3.2449-2.6355-5.8803-5.8803-5.8803zm0 0.47072c2.9902 0 5.4092 2.4191 5.4092 5.4095 0 2.9902-2.419 5.4092-5.4092 5.4092s-5.4095-2.419-5.4095-5.4092c0-2.9904 2.4194-5.4095 5.4095-5.4095z"
         id="path40" /><path
         style="color-rendering:auto;text-decoration-color:#000000;color:#000000;font-variant-numeric:normal;shape-rendering:auto;font-variant-ligatures:normal;text-decoration-line:none;font-variant-position:normal;mix-blend-mode:normal;solid-color:#000000;font-feature-settings:normal;shape-padding:0;font-variant-alternates:normal;text-indent:0;dominant-baseline:auto;font-variant-caps:normal;image-rendering:auto;white-space:normal;text-decoration-style:solid;text-orientation:mixed;isolation:auto;text-transform:none;fill:#ff4f12;fill-opacity:1"
         d="m51.59 59.835c-3.2452 0-5.8809 2.6354-5.8809 5.8803 0 3.2447 2.6358 5.8799 5.8809 5.8799 3.2445 0 5.8796-2.6352 5.8796-5.8799 0-3.2448-2.6351-5.8803-5.8796-5.8803zm0 0.47105c2.9899 0 5.4089 2.4189 5.4089 5.4092 0 2.9902-2.4189 5.4089-5.4089 5.4089-2.9907 0-5.4099-2.4187-5.4099-5.4089 0-2.9903 2.4192-5.4092 5.4099-5.4092z"
         id="path42" /><path
         style="color-rendering:auto;text-decoration-color:#000000;color:#000000;font-variant-numeric:normal;shape-rendering:auto;font-variant-ligatures:normal;text-decoration-line:none;font-variant-position:normal;mix-blend-mode:normal;solid-color:#000000;font-feature-settings:normal;shape-padding:0;font-variant-alternates:normal;text-indent:0;dominant-baseline:auto;font-variant-caps:normal;image-rendering:auto;white-space:normal;text-decoration-style:solid;text-orientation:mixed;isolation:auto;text-transform:none;fill:#ff4f12;fill-opacity:1"
         d="m23.183 35.963v10.137l-2.2439 3.4318 0.3943 0.2576 2.3207-3.549v-10.277z"
         id="path44" /><path
         style="color-rendering:auto;text-decoration-color:#000000;color:#000000;font-variant-numeric:normal;shape-rendering:auto;font-variant-ligatures:normal;text-decoration-line:none;font-variant-position:normal;mix-blend-mode:normal;solid-color:#000000;font-feature-settings:normal;shape-padding:0;font-variant-alternates:normal;text-indent:0;dominant-baseline:auto;font-variant-caps:normal;image-rendering:auto;white-space:normal;text-decoration-style:solid;text-orientation:mixed;isolation:auto;text-transform:none;fill:#ff4f12;fill-opacity:1"
         d="m34.748 35.963v10.177l-3.5757 13.872 0.4559 0.1176 3.5905-13.93v-10.237z"
         id="path46" /></g><g
       id="g66"
       style="fill:#ff4f12;fill-opacity:1"><path
         d="m67.143 35.963c0 0.88656 0.71858 1.6051 1.6047 1.6051 0.88656 0 1.6049-0.71858 1.6049-1.6051 0-0.88633-0.71835-1.6051-1.6049-1.6051-0.8861 0-1.6047 0.71882-1.6047 1.6051"
         id="path50"
         style="fill:#ff4f12;fill-opacity:1" /><path
         d="m55.704 35.963c0 0.88656 0.71882 1.6051 1.6049 1.6051 0.8868 0 1.6054-0.71858 1.6054-1.6051 0-0.88633-0.71858-1.6051-1.6054-1.6051-0.8861 0-1.6049 0.71882-1.6049 1.6051"
         id="path52"
         style="fill:#ff4f12;fill-opacity:1" /><path
         d="m49.985 35.963c0 0.88656 0.71858 1.6051 1.6054 1.6051 0.8861 0 1.6047-0.71858 1.6047-1.6051 0-0.88633-0.71858-1.6051-1.6047-1.6051-0.8868 0-1.6054 0.71882-1.6054 1.6051"
         id="path54"
         style="fill:#ff4f12;fill-opacity:1" /><path
         style="color-rendering:auto;text-decoration-color:#000000;color:#000000;font-variant-numeric:normal;shape-rendering:auto;font-variant-ligatures:normal;text-decoration-line:none;font-variant-position:normal;mix-blend-mode:normal;solid-color:#000000;font-feature-settings:normal;shape-padding:0;font-variant-alternates:normal;text-indent:0;dominant-baseline:auto;font-variant-caps:normal;image-rendering:auto;white-space:normal;text-decoration-style:solid;text-orientation:mixed;isolation:auto;text-transform:none;fill:#ff4f12;fill-opacity:1"
         d="m51.337 35.963v24.107h0.50564v-24.107z"
         id="path56" /><path
         style="color-rendering:auto;text-decoration-color:#000000;color:#000000;font-variant-numeric:normal;shape-rendering:auto;font-variant-ligatures:normal;text-decoration-line:none;font-variant-position:normal;mix-blend-mode:normal;solid-color:#000000;font-feature-settings:normal;shape-padding:0;font-variant-alternates:normal;text-indent:0;dominant-baseline:auto;font-variant-caps:normal;image-rendering:auto;white-space:normal;text-decoration-style:solid;text-orientation:mixed;isolation:auto;text-transform:none;fill:#ff4f12;fill-opacity:1"
         d="m68.512 35.963v10.312l7.4456 6.6171 0.31294-0.35181-7.2875-6.4768v-10.101z"
         id="path58" /><path
         d="m72.638 32.079c0 0.88633 0.71835 1.6049 1.6051 1.6049 0.88633 0 1.6049-0.71858 1.6049-1.6049 0-0.88656-0.71858-1.6049-1.6049-1.6049-0.8868 0-1.6051 0.71835-1.6051 1.6049"
         id="path60"
         style="fill:#ff4f12;fill-opacity:1" /><path
         style="color-rendering:auto;text-decoration-color:#000000;color:#000000;font-variant-numeric:normal;shape-rendering:auto;font-variant-ligatures:normal;text-decoration-line:none;font-variant-position:normal;mix-blend-mode:normal;solid-color:#000000;font-feature-settings:normal;shape-padding:0;font-variant-alternates:normal;text-indent:0;dominant-baseline:auto;font-variant-caps:normal;image-rendering:auto;white-space:normal;text-decoration-style:solid;text-orientation:mixed;isolation:auto;text-transform:none;fill:#ff4f12;fill-opacity:1"
         d="m56.948 35.963v10.256l1.7511 3.9687 0.43086-0.19007-1.7109-3.8781v-10.157z"
         id="path62" /><path
         d="m46.346 0.22266c-8.0009 0-14.605 5.9367-15.664 13.645a0.22213 0.22213 0 0 1 -0.24219 0.19141c-0.28232-0.02673-0.56625-0.04102-0.85352-0.04102-4.9289 0-8.9199 3.9912-8.9199 8.9199 0 4.9292 3.9909 8.918 8.9199 8.918h30.844c5.9466 0 10.762-4.8153 10.762-10.762 0-5.6717-4.3838-10.311-9.9473-10.729a0.22213 0.22213 0 0 1 -0.19 -0.138c-2.317-5.8579-8.025-10.004-14.709-10.004zm0 0.70312c6.3928 0 11.841 3.9637 14.055 9.5586 0.12727 0.32141 0.44629 0.5582 0.79102 0.58398a0.22213 0.22213 0 0 1 0.002 0c5.2018 0.39034 9.2949 4.7173 9.2949 10.025 0 5.565-4.4934 10.059-10.059 10.059h-30.844c-4.5474 0-8.2168-3.6671-8.2168-8.2148 0-4.5472 3.6694-8.2168 8.2168-8.2168 0.2643 0 0.52604 0.01631 0.78711 0.04102 0.23537 0.02259 0.47869-0.05048 0.66406-0.19727s0.30984-0.36533 0.3418-0.59961c1.011-7.3645 7.315-13.039 14.967-13.039z"
         id="path64"
         style="fill:#ff4f12;fill-opacity:1" /></g><g
       id="g84"
       style="fill:#ff4f12;fill-opacity:1"><path
         style="color-rendering:auto;text-decoration-color:#000000;color:#000000;font-variant-numeric:normal;shape-rendering:auto;font-variant-ligatures:normal;text-decoration-line:none;font-variant-position:normal;mix-blend-mode:normal;solid-color:#000000;font-feature-settings:normal;shape-padding:0;font-variant-alternates:normal;text-indent:0;dominant-baseline:auto;font-variant-caps:normal;image-rendering:auto;white-space:normal;text-decoration-style:solid;text-orientation:mixed;isolation:auto;text-transform:none;fill:#ff4f12;fill-opacity:1"
         d="m16.861 65.48v0.47105h8.894v-0.47105z"
         id="path68" /><path
         style="color-rendering:auto;text-decoration-color:#000000;color:#000000;font-variant-numeric:normal;shape-rendering:auto;font-variant-ligatures:normal;text-decoration-line:none;font-variant-position:normal;mix-blend-mode:normal;solid-color:#000000;font-feature-settings:normal;shape-padding:0;font-variant-alternates:normal;text-indent:0;dominant-baseline:auto;font-variant-caps:normal;image-rendering:auto;white-space:normal;text-decoration-style:solid;text-orientation:mixed;isolation:auto;text-transform:none;fill:#ff4f12;fill-opacity:1"
         d="m16.695 59.51-1.8539 1.8572 0.33336 0.3327 1.8539-1.8572z"
         id="path70" /><path
         style="color-rendering:auto;text-decoration-color:#000000;color:#000000;font-variant-numeric:normal;shape-rendering:auto;font-variant-ligatures:normal;text-decoration-line:none;font-variant-position:normal;mix-blend-mode:normal;solid-color:#000000;font-feature-settings:normal;shape-padding:0;font-variant-alternates:normal;text-indent:0;dominant-baseline:auto;font-variant-caps:normal;image-rendering:auto;white-space:normal;text-decoration-style:solid;text-orientation:mixed;isolation:auto;text-transform:none;fill:#ff4f12;fill-opacity:1"
         d="m24.831 58.74-0.33303 0.33303 2.7861 2.7851 0.33303-0.33303z"
         id="path72" /><path
         style="color-rendering:auto;text-decoration-color:#000000;color:#000000;font-variant-numeric:normal;shape-rendering:auto;font-variant-ligatures:normal;text-decoration-line:none;font-variant-position:normal;mix-blend-mode:normal;solid-color:#000000;font-feature-settings:normal;shape-padding:0;font-variant-alternates:normal;text-indent:0;dominant-baseline:auto;font-variant-caps:normal;image-rendering:auto;white-space:normal;text-decoration-style:solid;text-orientation:mixed;isolation:auto;text-transform:none;fill:#ff4f12;fill-opacity:1"
         d="m57.234 65.48v0.47105h9.1506v-0.47105z"
         id="path74" /><path
         style="color-rendering:auto;text-decoration-color:#000000;color:#000000;font-variant-numeric:normal;shape-rendering:auto;font-variant-ligatures:normal;text-decoration-line:none;font-variant-position:normal;mix-blend-mode:normal;solid-color:#000000;font-feature-settings:normal;shape-padding:0;font-variant-alternates:normal;text-indent:0;dominant-baseline:auto;font-variant-caps:normal;image-rendering:auto;white-space:normal;text-decoration-style:solid;text-orientation:mixed;isolation:auto;text-transform:none;fill:#ff4f12;fill-opacity:1"
         d="m57.324 59.51-1.8536 1.8572 0.33336 0.3327 1.8536-1.8572z"
         id="path76" /><path
         style="color-rendering:auto;text-decoration-color:#000000;color:#000000;font-variant-numeric:normal;shape-rendering:auto;font-variant-ligatures:normal;text-decoration-line:none;font-variant-position:normal;mix-blend-mode:normal;solid-color:#000000;font-feature-settings:normal;shape-padding:0;font-variant-alternates:normal;text-indent:0;dominant-baseline:auto;font-variant-caps:normal;image-rendering:auto;white-space:normal;text-decoration-style:solid;text-orientation:mixed;isolation:auto;text-transform:none;fill:#ff4f12;fill-opacity:1"
         d="m65.46 58.74-0.33303 0.33303 2.7858 2.7851 0.33303-0.33303z"
         id="path78" /><path
         style="color-rendering:auto;text-decoration-color:#000000;color:#000000;font-variant-numeric:normal;shape-rendering:auto;font-variant-ligatures:normal;text-decoration-line:none;font-variant-position:normal;mix-blend-mode:normal;solid-color:#000000;font-feature-settings:normal;shape-padding:0;font-variant-alternates:normal;text-indent:0;dominant-baseline:auto;font-variant-caps:normal;image-rendering:auto;white-space:normal;text-decoration-style:solid;text-orientation:mixed;isolation:auto;text-transform:none;fill:#ff4f12;fill-opacity:1"
         d="m74.401 31.904-0.31623 0.34917 5.0333 4.5587 0.31623-0.34884z"
         id="path80" /><path
         style="color-rendering:auto;text-decoration-color:#000000;color:#000000;font-variant-numeric:normal;shape-rendering:auto;font-variant-ligatures:normal;text-decoration-line:none;font-variant-position:normal;mix-blend-mode:normal;solid-color:#000000;font-feature-settings:normal;shape-padding:0;font-variant-alternates:normal;text-indent:0;dominant-baseline:auto;font-variant-caps:normal;image-rendering:auto;white-space:normal;text-decoration-style:solid;text-orientation:mixed;isolation:auto;text-transform:none;fill:#ff4f12;fill-opacity:1"
         d="m8.812 34.493c-3.2447 0-5.8803 2.6353-5.8803 5.8803 0 3.2447 2.6355 5.8803 5.8803 5.8803 3.2449 0 5.8803-2.6355 5.8803-5.8803 0-3.2449-2.6353-5.8803-5.8803-5.8803zm0 0.47105c2.9904 0 5.4092 2.4188 5.4092 5.4092 0 2.9902-2.4188 5.4092-5.4092 5.4092-2.9902 0-5.4092-2.419-5.4092-5.4092 0-2.9904 2.419-5.4092 5.4092-5.4092z"
         id="path82" /></g><g
       id="g170"
       style="fill:#ff4f12;fill-opacity:1"><path
         d="m19.681 32.079c0 0.88633-0.71858 1.6049-1.6051 1.6049-0.8861 0-1.6049-0.71858-1.6049-1.6049 0-0.88656 0.71882-1.6049 1.6049-1.6049 0.88656 0 1.6051 0.71835 1.6051 1.6049"
         id="path86"
         style="fill:#ff4f12;fill-opacity:1" /><path
         style="color-rendering:auto;text-decoration-color:#000000;color:#000000;font-variant-numeric:normal;shape-rendering:auto;font-variant-ligatures:normal;text-decoration-line:none;font-variant-position:normal;mix-blend-mode:normal;solid-color:#000000;font-feature-settings:normal;shape-padding:0;font-variant-alternates:normal;text-indent:0;dominant-baseline:auto;font-variant-caps:normal;image-rendering:auto;white-space:normal;text-decoration-style:solid;text-orientation:mixed;isolation:auto;text-transform:none;fill:#ff4f12;fill-opacity:1"
         d="m17.917 31.904-5.033 4.559 0.31623 0.34884 5.033-4.5587z"
         id="path88" /><path
         d="m12.127 42.138h-6.7459v-3.577h6.7459zm-7.4633-4.254v4.9312h8.1643v-4.931h-8.1643"
         id="path90"
         style="fill:#ff4f12;fill-opacity:1" /><path
         d="m10.482 44.099c0 0.28487-0.77712 0.51537-1.7358 0.51537-0.95875 0-1.736-0.23051-1.736-0.51537 0-0.28463 0.77721-0.51514 1.736-0.51514 0.95872 0 1.7358 0.23051 1.7358 0.51514"
         id="path92"
         style="fill:#ff4f12;fill-opacity:1" /><path
         d="m8.4056 44.099h0.6668v-1.567h-0.6668z"
         id="path94"
         style="fill:#ff4f12;fill-opacity:1" /><path
         d="m23.034 57.622-0.84994-0.79884c0.27274-0.33573 0.52494-0.71625 0.73958-1.1462 0.34879 0.66935 0.49484 1.2137 0.5303 1.3616-0.12015 0.20904-0.26107 0.40385-0.41995 0.5835zm-3.344 1.1402c0.23938-0.11455 0.52471-0.26807 0.8308-0.46475 0.29933 0.13485 0.62246 0.25174 0.96962 0.3474-0.35322 0.11758-0.72978 0.18361-1.1227 0.18361-0.23191 0-0.45798-0.02403-0.67776-0.06626zm-2.1805-1.3774c0.06112-0.51607 0.17078-0.98478 0.31893-1.4087 0.49624 0.75638 1.213 1.5279 2.2372 2.0935-0.45425 0.2648-0.83734 0.41948-1.044 0.49391-0.60636-0.248-1.1271-0.65956-1.5121-1.1787zm-0.53614-3.1921c0.11875 0.36349 0.29863 0.81657 0.5639 1.2993-0.16448 0.39079-0.29583 0.82147-0.38799 1.2911-0.21721-0.46008-0.34203-0.97242-0.34203-1.5151 0-0.37469 0.05856-0.73585 0.16611-1.0753zm4.4589-2.323c-0.33573 0.12808-0.77388 0.32406-1.2459 0.61173-0.40455-0.18011-0.8504-0.32616-1.3422-0.42765 0.46241-0.21978 0.97755-0.34623 1.5235-0.34623 0.37072 0 0.72838 0.05716 1.0646 0.16215zm-2.3475 2.041c0.36209-0.38262 0.74891-0.68919 1.1227-0.93322 1.1796 0.57043 1.9523 1.4388 2.4474 2.2299-0.21558 0.50581-0.48714 0.94302-0.78624 1.3191zm-0.61289 0.04083c-0.25687 0.31053-0.49531 0.66119-0.70272 1.0545-0.302-0.619-0.452-1.162-0.518-1.46 0.089-0.161 0.192-0.312 0.303-0.456zm0.297-0.336-0.92-0.865c0.12388-0.12389 0.2592-0.23517 0.39988-0.33969 0.55014 0.07069 1.0443 0.19807 1.4878 0.36699-0.32523 0.23237-0.65466 0.51001-0.96729 0.83757zm1.7265 4.1804c-1.2053-0.59213-1.978-1.4806-2.4698-2.3118 0.21394-0.47151 0.47478-0.88073 0.76128-1.2347l2.7875 2.6196c-0.35182 0.37912-0.72488 0.68382-1.079 0.92692zm1.3926-0.63202 0.82614 0.77621c-0.17101 0.15048-0.35602 0.28393-0.55363 0.39989-0.43932-0.08306-0.84014-0.20041-1.206-0.34389 0.31053-0.23214 0.62923-0.50651 0.93346-0.8322zm1.2489-4.1293c-0.0308 0.62083-0.13602 1.1789-0.29677 1.6772-0.49531-0.71462-1.2013-1.457-2.1907-2.0006 0.63553-0.34926 1.1759-0.51747 1.4033-0.57883 0.41925 0.22607 0.78694 0.53404 1.0842 0.9022zm0.78974 2.2337c0 0.40665-0.07162 0.79604-0.19738 1.1602-0.11782-0.32453-0.3061-0.76431-0.58723-1.2442 0.18104-0.46101 0.31706-0.97242 0.39125-1.5375 0.24964 0.48691 0.39335 1.0368 0.39335 1.6215zm-3.5605-4.1209c-2.2761 0-4.1209 1.8452-4.1209 4.1209 0 2.2759 1.8448 4.1209 4.1209 4.1209 2.2759 0 4.1209-1.845 4.1209-4.1209 0-2.2757-1.845-4.1209-4.1209-4.1209"
         id="path96"
         style="fill:#ff4f12;fill-opacity:1" /><path
         d="m42.717 58.396h-4.2515v-6.705h4.2515zm-2.1259 0.68802c-0.13462 0-0.24381-0.10919-0.24381-0.2438 0-0.13485 0.10919-0.24404 0.24381-0.24404s0.2438 0.10919 0.2438 0.24404c0 0.13462-0.10919 0.2438-0.2438 0.2438zm-2.53-7.8053v7.9793h5.059v-7.9793h-5.0597"
         id="path98"
         style="fill:#ff4f12;fill-opacity:1" /><path
         d="m63.547 53.7c0-1.4556-1.2092-2.6287-2.6777-2.5703-1.348 0.05389-2.45 1.1885-2.467 2.5379-0.01098 0.8931 0.43395 1.6824 1.1161 2.1518 0.26247 0.18035 0.42042 0.47711 0.42042 0.79557v0.80071c0 0.49811 0.25057 0.53777 1.0356 0.53777 0.66259 0 1.0452 0.0154 1.0452-0.49461v-0.83197c0-0.33199 0.16822-0.63622 0.43955-0.82777 0.65769-0.46544 1.0877-1.2314 1.0877-2.0991"
         id="path100"
         style="fill:#ff4f12;fill-opacity:1" /><path
         d="m61.795 58.681h-1.6231c-0.11012 0-0.20041-0.09006-0.20041-0.20041 0-0.10989 0.09029-0.20041 0.20041-0.20041h1.6231c0.11059 0 0.20041 0.09052 0.20041 0.20041 0 0.11036-0.08982 0.20041-0.20041 0.20041"
         id="path102"
         style="fill:#ff4f12;fill-opacity:1" /><path
         d="m61.376 59.408h-0.66866c-0.11059 0-0.20041-0.09006-0.20041-0.20041 0-0.11012 0.08982-0.20018 0.20041-0.20018h0.66866c0.11012 0 0.20041 0.09006 0.20041 0.20018 0 0.11035-0.09029 0.20041-0.20041 0.20041"
         id="path104"
         style="fill:#ff4f12;fill-opacity:1" /><path
         d="m81.158 57.691c-1.1082 0-2.0067-0.89846-2.0067-2.0067s0.89846-2.0062 2.0067-2.0062 2.0067 0.898 2.0067 2.0062-0.89846 2.0067-2.0067 2.0067zm2.9581-4.552h-1.0116v-0.51234c0-0.19481-0.15935-0.35392-0.35416-0.35392h-3.1846c-0.19481 0-0.35416 0.15912-0.35416 0.35392v0.51234h-1.0116c-0.37516 0-0.68172 0.3068-0.68172 0.68172v3.7273c0 0.37492 0.30656 0.68172 0.68172 0.68172h5.9162c0.37469 0 0.68149-0.3068 0.68149-0.68172v-3.7273c0-0.37492-0.3068-0.68172-0.68149-0.68172"
         id="path106"
         style="fill:#ff4f12;fill-opacity:1" /><path
         d="m81.158 54.297c-0.76664 0-1.3882 0.62153-1.3882 1.3879 0 0.76688 0.62153 1.3882 1.3882 1.3882 0.76664 0 1.3882-0.62129 1.3882-1.3882 0-0.76641-0.62153-1.3879-1.3882-1.3879"
         id="path108"
         style="fill:#ff4f12;fill-opacity:1" /><path
         d="m85.686 40.904c-0.40525 0-0.73375-0.32849-0.73375-0.73398 0-0.40502 0.3285-0.73352 0.73375-0.73352 0.40502 0 0.73352 0.3285 0.73352 0.73352 0 0.40549-0.3285 0.73398-0.73352 0.73398zm-2.0664 0c-0.40549 0-0.73421-0.32849-0.73421-0.73398 0-0.40502 0.32873-0.73352 0.73421-0.73352 0.40502 0 0.73351 0.3285 0.73351 0.73352 0 0.40549-0.3285 0.73398-0.73351 0.73398zm-2.0669 0c-0.40502 0-0.73374-0.32849-0.73374-0.73398 0-0.40502 0.32873-0.73352 0.73374-0.73352 0.40502 0 0.73352 0.3285 0.73352 0.73352 0 0.40549-0.32849 0.73398-0.73352 0.73398zm5.4349-3.0456h-6.737c-0.18151 0-0.32826 0.14698-0.32826 0.32803v3.8988c0 0.18104 0.14675 0.32803 0.32826 0.32803h0.2753v1.4054l1.4054-1.4054h5.0555c0.18128 0 0.32826-0.14698 0.32826-0.32803v-3.8988c0-0.18104-0.14698-0.32803-0.32826-0.32803"
         id="path110"
         style="fill:#ff4f12;fill-opacity:1" /><path
         d="m73.282 66.182c-0.24054 0.65508-0.96612 0.99102-1.6215 0.75069-0.65489-0.24068-0.99108-0.96659-0.75031-1.6216 0.24054-0.65508 0.96612-0.99108 1.6212-0.7504 0.65536 0.24033 0.99132 0.96621 0.75054 1.6213zm-0.59726-2.0385c-0.88516-0.32546-1.8669 0.12911-2.1917 1.0142-0.32523 0.88556 0.12902 1.8669 1.0146 2.1918 0.88493 0.32544 1.8667-0.12904 2.1914-1.0142 0.32523-0.88556-0.12902-1.8669-1.0144-2.1919"
         id="path112"
         style="fill:#ff4f12;fill-opacity:1" /><path
         d="m71.374 67.714c-1.0863-0.39916-1.6439-1.6031-1.2449-2.6895 0.39895-1.0864 1.6033-1.6438 2.6896-1.2451 0.98782 0.36279 1.5356 1.3914 1.3275 2.3919l-0.21231 0.5779c-0.48878 0.89767-1.5718 1.3275-2.5598 0.96474zm4.3743-1.1388-0.03383-0.1111c-0.0378-0.12412-0.13158-0.223-0.25314-0.26774l-0.76804-0.28181c0.01329-0.20713 0.000844-0.41246-0.0343-0.61278l0.75148-0.34786c0.11782-0.05441 0.20298-0.16086 0.23074-0.28746l0.0245-0.11327c0.01936-0.0884 0.0093-0.18063-0.0287-0.26247l-0.19388-0.41911c-0.03803-0.08212-0.10148-0.14932-0.18151-0.19178l-0.10242-0.0546c-0.11455-0.06089-0.2508-0.06439-0.36862-0.01004l-0.75218 0.34833c-0.0112 0.0049-0.02053 0.01213-0.03103 0.01819-0.13065-0.14185-0.27857-0.269-0.44142-0.38052 0.0089-0.01633 0.01797-0.03266 0.02473-0.05039l0.2858-0.77831c0.04456-0.12178 0.02963-0.25734-0.04036-0.36652l-0.06253-0.09775c-0.04876-0.07582-0.12109-0.13368-0.20578-0.16495l-0.43371-0.15935c-0.08493-0.03126-0.17732-0.03336-0.26387-0.0072l-0.11105 0.03406c-0.12389 0.0378-0.22304 0.13159-0.2676 0.25314l-0.2858 0.77831c-0.01236 0.0343-0.01867 0.06929-0.02193 0.10406-0.18711-0.0065-0.37236 0.0086-0.5534 0.042-0.0054-0.04106-0.01493-0.08189-0.03313-0.12132l-0.34832-0.75218c-0.05436-0.11782-0.16052-0.20298-0.2872-0.23074l-0.11386-0.02473c-0.08796-0.01936-0.18011-0.0093-0.262 0.0287l-0.41925 0.19388c-0.08189 0.03803-0.14932 0.10172-0.19178 0.18151l-0.05459 0.10242c-0.06089 0.11455-0.06462 0.2508-0.01004 0.36862l0.34832 0.75218c0.02333 0.05039 0.05529 0.09332 0.09356 0.12902-0.13439 0.12108-0.25617 0.25804-0.36396 0.40735-0.03989-0.03779-0.08749-0.06859-0.14232-0.08819l-0.77831-0.28627c-0.12178-0.04456-0.2571-0.02963-0.36629 0.04036l-0.09775 0.06276c-0.07606 0.04876-0.13392 0.12109-0.16518 0.20578l-0.15911 0.43378c-0.03126 0.08476-0.03383 0.17743-0.0072 0.26373l0.03383 0.1111c0.03779 0.12395 0.13135 0.22283 0.25337 0.26758l0.77784 0.2858c0.05529 0.02032 0.11152 0.02769 0.16635 0.02452-0.01471 0.18398-0.01051 0.36699 0.01354 0.54645-0.05203 0.0025-0.10452 0.0142-0.15445 0.03735l-0.75288 0.34833c-0.11736 0.05441-0.20274 0.16075-0.23051 0.28743l-0.02496 0.11355c-0.01914 0.08814-0.0089 0.18037 0.02893 0.26221l0.19434 0.41939c0.03803 0.08184 0.10149 0.14911 0.18128 0.19157l0.10242 0.05469c0.11455 0.06068 0.2508 0.06453 0.36839 0.0101l0.75265-0.3484c0.03919-0.01813 0.07279-0.04311 0.10335-0.07099 0.11642 0.14253 0.24777 0.27385 0.39452 0.39016-0.01983 0.02879-0.03756 0.05933-0.05039 0.09349l-0.2858 0.77831c-0.04456 0.12167-0.02963 0.25726 0.04013 0.36636l0.06276 0.09778c0.049 0.07601 0.12109 0.13406 0.20578 0.16506l0.43348 0.15946c0.08492 0.03082 0.17754 0.03346 0.26387 0.0072l0.11106-0.03399c0.12412-0.03773 0.22327-0.13152 0.26784-0.25318l0.2858-0.77829c0.0065-0.01803 0.01003-0.03644 0.01402-0.05469 0.19598 0.02051 0.39125 0.01915 0.58233-0.0043 0.0044 0.0113 0.007 0.02277 0.01189 0.03399l0.34833 0.75241c0.05459 0.11738 0.16098 0.20286 0.28743 0.23048l0.11362 0.02496c0.08819 0.01913 0.18035 0.009 0.26224-0.02879l0.41925-0.19432c0.08189-0.03773 0.14932-0.1016 0.19178-0.18116l0.05436-0.10263c0.06089-0.11437 0.06462-0.25071 0.01051-0.36827l-0.34786-0.7516c0.15608-0.12995 0.2984-0.27831 0.42228-0.44473l0.76804 0.28197c0.12178 0.04475 0.25734 0.0297 0.36629-0.04029l0.09776-0.0625c0.07582-0.04876 0.13392-0.12122 0.16518-0.20598l0.15935-0.43353c0.03126-0.08483 0.03336-0.17743 0.007-0.26382"
         id="path114"
         style="fill:#ff4f12;fill-opacity:1" /><path
         d="m50.067 63.476c0-0.8406 0.68149-1.5223 1.5228-1.5223 0.84037 0 1.5221 0.68172 1.5221 1.5223 0 0.8409-0.68172 1.5225-1.5221 1.5225-0.8413 0-1.5228-0.6816-1.5228-1.5225"
         id="path116"
         style="fill:#ff4f12;fill-opacity:1" /><path
         d="m51.59 65.676c-2.7399 0-2.5638 3.5605-2.5638 3.5605h5.1271s0.17614-3.5605-2.5633-3.5605"
         id="path118"
         style="fill:#ff4f12;fill-opacity:1" /><path
         d="m30.79 66.664c0.15795 0.23139 0.15795 0.55 0 0.78139-0.28417 0.41713-0.88726 0.41713-1.1714 0-0.15748-0.23139-0.15748-0.55 0.000169-0.78139 0.28393-0.41722 0.88703-0.41722 1.1712 0zm2.5673-4.1298-2.5885 2.5885c-0.73818-0.2149-1.5755 0.000674-2.1147 0.64815-0.60263 0.72297-0.61453 1.8015-0.02613 2.5359 0.76384 0.95364 2.1602 1.0105 2.9996 0.17106 0.62829-0.62827 0.75288-1.5684 0.37656-2.3217l0.82684 0.09258-0.09076-0.80799 0.80817 0.09066-0.09075-0.80773 0.80794 0.09041-0.09052-0.80808 0.80794 0.09099-0.09332-0.83127 0.0112-0.01098-0.72022-0.72045c-0.22724-0.22724-0.59586-0.22724-0.82334 0"
         id="path120"
         style="fill:#ff4f12;fill-opacity:1" /><path
         style="color-rendering:auto;text-decoration-color:#000000;color:#000000;font-variant-numeric:normal;shape-rendering:auto;font-variant-ligatures:normal;text-decoration-line:none;font-variant-position:normal;mix-blend-mode:normal;solid-color:#000000;font-feature-settings:normal;shape-padding:0;font-variant-alternates:normal;text-indent:0;dominant-baseline:auto;font-variant-caps:normal;image-rendering:auto;white-space:normal;text-decoration-style:solid;text-orientation:mixed;isolation:auto;text-transform:none;fill:#ff4f12;fill-opacity:1"
         d="m86.566 18.851c-3.925-0.3096-7.1876 2.9528-6.878 6.878 0.24418 3.095 2.7484 5.5994 5.8437 5.8434 3.9252 0.30935 7.1873-2.9524 6.8777-6.8777-0.24394-3.0953-2.7481-5.5998-5.8434-5.8437zm-0.04019 0.50959c2.8433 0.22408 5.1502 2.531 5.3743 5.3743 0.2858 3.6236-2.7046 6.6138-6.3282 6.3282-2.8433-0.22408-5.15-2.5312-5.3743-5.3743-0.2858-3.6236 2.7049-6.614 6.3282-6.3282z"
         id="path122" /><path
         d="m74.354 25.212c0 0.96192 0.77994 1.7416 1.7416 1.7416 0.96215 0 1.7416-0.77971 1.7416-1.7416 0-0.96192-0.77948-1.7416-1.7416-1.7416-0.96169 0-1.7416 0.77971-1.7416 1.7416"
         id="path124"
         style="fill:#ff4f12;fill-opacity:1" /><path
         style="color-rendering:auto;text-decoration-color:#000000;color:#000000;font-variant-numeric:normal;shape-rendering:auto;font-variant-ligatures:normal;text-decoration-line:none;font-variant-position:normal;mix-blend-mode:normal;solid-color:#000000;font-feature-settings:normal;shape-padding:0;font-variant-alternates:normal;text-indent:0;dominant-baseline:auto;font-variant-caps:normal;image-rendering:auto;white-space:normal;text-decoration-style:solid;text-orientation:mixed;isolation:auto;text-transform:none;fill:#ff4f12;fill-opacity:1"
         d="m76.096 24.956v0.51091h3.8271v-0.51091z"
         id="path126" /><path
         style="color-rendering:auto;text-decoration-color:#000000;color:#000000;font-variant-numeric:normal;shape-rendering:auto;font-variant-ligatures:normal;text-decoration-line:none;font-variant-position:normal;mix-blend-mode:normal;solid-color:#000000;font-feature-settings:normal;shape-padding:0;font-variant-alternates:normal;text-indent:0;dominant-baseline:auto;font-variant-caps:normal;image-rendering:auto;white-space:normal;text-decoration-style:solid;text-orientation:mixed;isolation:auto;text-transform:none;fill:#ff4f12;fill-opacity:1"
         d="m6.3813 18.831c-3.5212 0-6.3813 2.8599-6.3813 6.381 0 3.5215 2.8601 6.3813 6.3813 6.3813 3.5213 0 6.3816-2.8598 6.3816-6.3813 0-3.5211-2.8603-6.381-6.3816-6.381zm0 0.51091c3.2451 0 5.8704 2.6252 5.8704 5.87 0 3.2453-2.6252 5.8704-5.8704 5.8704-3.245 0-5.87-2.6251-5.87-5.8704 0-3.2448 2.625-5.87 5.87-5.87z"
         id="path128" /><path
         d="m18.076 25.212c0 0.96192-0.77971 1.7416-1.7416 1.7416-0.96192 0-1.7416-0.77971-1.7416-1.7416 0-0.96192 0.77971-1.7416 1.7416-1.7416 0.96192 0 1.7416 0.77971 1.7416 1.7416"
         id="path130"
         style="fill:#ff4f12;fill-opacity:1" /><path
         d="m18.912 18.208c0 0.96169-0.77994 1.7416-1.7419 1.7416-0.96192 0-1.7416-0.77994-1.7416-1.7416 0-0.96216 0.77971-1.7416 1.7416-1.7416 0.96192 0 1.7419 0.77948 1.7419 1.7416"
         id="path132"
         style="fill:#ff4f12;fill-opacity:1" /><path
         d="m76.76 18.208c0 0.96169-0.77994 1.7416-1.7419 1.7416-0.96192 0-1.7419-0.77994-1.7419-1.7416 0-0.96216 0.77994-1.7416 1.7419-1.7416 0.96192 0 1.7419 0.77948 1.7419 1.7416"
         id="path134"
         style="fill:#ff4f12;fill-opacity:1" /><path
         style="color-rendering:auto;text-decoration-color:#000000;color:#000000;font-variant-numeric:normal;shape-rendering:auto;font-variant-ligatures:normal;text-decoration-line:none;font-variant-position:normal;mix-blend-mode:normal;solid-color:#000000;font-feature-settings:normal;shape-padding:0;font-variant-alternates:normal;text-indent:0;dominant-baseline:auto;font-variant-caps:normal;image-rendering:auto;white-space:normal;text-decoration-style:solid;text-orientation:mixed;isolation:auto;text-transform:none;fill:#ff4f12;fill-opacity:1"
         d="m12.507 24.956v0.51091h3.8267v-0.51091z"
         id="path136" /><path
         d="m3.0915 22.363c-0.13543 0-0.24607 0.11098-0.24607 0.24607v2.5858h-0.1031c-0.31471 0-0.56988 0.25515-0.56988 0.56988v1.7254c0 0.31473 0.25517 0.56988 0.56988 0.56988h7.2512c0.31468 0 0.56954-0.25514 0.56954-0.56988v-1.725c0-0.31473-0.25486-0.56988-0.56954-0.56988h-0.078069v-2.5858c0-0.13508-0.11082-0.24607-0.24607-0.24607-0.13534 0-0.24607 0.11098-0.24607 0.24607v2.5858h-6.0857v-2.5858c0-0.13508-0.11084-0.24607-0.24607-0.24607zm-0.090258 3.8676c0.21929 0 0.39727 0.17772 0.39727 0.39727 0 0.21907-0.17798 0.39694-0.39727 0.39694-0.21935 0-0.39693-0.17786-0.39693-0.39694 0-0.21954 0.17758-0.39727 0.39693-0.39727zm1.3466 0c0.21926 0 0.39727 0.17772 0.39727 0.39727 0 0.21907-0.17801 0.39694-0.39727 0.39694-0.21935 0-0.39694-0.17786-0.39694-0.39694 0-0.21954 0.17758-0.39727 0.39694-0.39727zm1.3466 0c0.21926 0 0.39727 0.17772 0.39727 0.39727 0 0.21907-0.178 0.39694-0.39727 0.39694-0.21928 0-0.39694-0.17786-0.39694-0.39694 0-0.21954 0.17765-0.39727 0.39694-0.39727zm1.3466 0c0.21935 0 0.39727 0.17772 0.39727 0.39727 0 0.21907-0.17791 0.39694-0.39727 0.39694-0.21928 0-0.39694-0.17786-0.39694-0.39694 0-0.21954 0.17765-0.39727 0.39694-0.39727zm1.3469 0c0.21928 0 0.39693 0.17772 0.39693 0.39727 0 0.21907-0.17765 0.39694-0.39693 0.39694-0.21935 0-0.39727-0.17786-0.39727-0.39694 0-0.21954 0.17791-0.39727 0.39727-0.39727zm1.3466 0c0.21926 0 0.39694 0.17772 0.39694 0.39727 0 0.21907-0.17767 0.39694-0.39694 0.39694-0.21928 0-0.39727-0.17786-0.39727-0.39694 0-0.21954 0.17798-0.39727 0.39727-0.39727z"
         id="path138"
         style="fill:#ff4f12;fill-opacity:1" /><path
         d="m82.802 23.235v3.3358l1.9201-2.0004-1.9201-1.3354"
         id="path140"
         style="fill:#ff4f12;fill-opacity:1" /><path
         d="m88.988 23.067h-5.8187l2.9093 2.0167 2.9093-2.0167"
         id="path142"
         style="fill:#ff4f12;fill-opacity:1" /><path
         d="m87.434 24.57 1.9206 2.0004v-3.3358l-1.9206 1.3354"
         id="path144"
         style="fill:#ff4f12;fill-opacity:1" /><path
         d="m86.078 25.446-1.0116-0.67729-2.2647 2.345v0.24264h6.5526v-0.24264l-2.2647-2.345-1.0116 0.67729"
         id="path146"
         style="fill:#ff4f12;fill-opacity:1" /><path
         style="color-rendering:auto;text-decoration-color:#000000;color:#000000;font-variant-numeric:normal;shape-rendering:auto;font-variant-ligatures:normal;text-decoration-line:none;font-variant-position:normal;mix-blend-mode:normal;solid-color:#000000;font-feature-settings:normal;shape-padding:0;font-variant-alternates:normal;text-indent:0;dominant-baseline:auto;font-variant-caps:normal;image-rendering:auto;white-space:normal;text-decoration-style:solid;text-orientation:mixed;isolation:auto;text-transform:none;fill:#ff4f12;fill-opacity:1"
         d="m83.093 1.9735c-3.521 0-6.3813 2.8597-6.3813 6.381s2.8602 6.3813 6.3813 6.3813c3.5213 0 6.3813-2.86 6.3813-6.3813s-2.86-6.381-6.3813-6.381zm0 0.51091c3.2451 0 5.8704 2.625 5.8704 5.87 0 3.2451-2.6253 5.87-5.8704 5.87-3.2448 0-5.8704-2.625-5.8704-5.87 0-3.2451 2.6255-5.87 5.8704-5.87z"
         id="path148" /><path
         d="m83.093 8.5114c-0.47175 0-0.8546-0.38262-0.8546-0.8546 0-0.47221 0.38285-0.85483 0.8546-0.85483 0.47221 0 0.85507 0.38262 0.85507 0.85483 0 0.47198-0.38286 0.8546-0.85507 0.8546zm0-3.337c-1.3707 0-2.4819 1.1115-2.4819 2.4824 0 1.3707 2.4819 4.7377 2.4819 4.7377s2.4821-3.3671 2.4821-4.7377c0-1.3709-1.111-2.4824-2.4821-2.4824"
         id="path150"
         style="fill:#ff4f12;fill-opacity:1" /><path
         style="color-rendering:auto;text-decoration-color:#000000;color:#000000;font-variant-numeric:normal;shape-rendering:auto;font-variant-ligatures:normal;text-decoration-line:none;font-variant-position:normal;mix-blend-mode:normal;solid-color:#000000;font-feature-settings:normal;shape-padding:0;font-variant-alternates:normal;text-indent:0;dominant-baseline:auto;font-variant-caps:normal;image-rendering:auto;white-space:normal;text-decoration-style:solid;text-orientation:mixed;isolation:auto;text-transform:none;fill:#ff4f12;fill-opacity:1"
         d="m9.3031 1.9735c-3.5212 0-6.381 2.8597-6.381 6.381s2.8597 6.3813 6.381 6.3813 6.3813-2.86 6.3813-6.3813-2.86-6.381-6.3813-6.381zm0 0.51091c3.2451 0 5.8704 2.625 5.8704 5.87 0 3.2451-2.6253 5.87-5.8704 5.87-3.245 0-5.87-2.625-5.87-5.87 0-3.2451 2.625-5.87 5.87-5.87z"
         id="path152" /><path
         d="m11.612 7.3192c-0.27414 0-0.52156 0.10872-0.70685 0.28253l-1.7466-1.2241c0.05422-0.12552 0.084736-0.26387 0.084736-0.40899 0-0.57207-0.46351-1.0352-1.0351-1.0352-0.57169 0-1.0351 0.46311-1.0351 1.0352 0 0.5716 0.46341 1.0349 1.0351 1.0349 0.27404 0 0.52167-0.10849 0.70675-0.2823l1.7462 1.2239c-0.054 0.1258-0.085 0.2639-0.085 0.4093 0 0.14558 0.03052 0.28347 0.08467 0.40922l-1.7462 1.2241c-0.1851-0.174-0.4327-0.2825-0.7067-0.2825-0.57169 0-1.0351 0.46358-1.0351 1.0352 0 0.5716 0.46341 1.0349 1.0351 1.0349 0.5716 0 1.0351-0.46335 1.0351-1.0349 0-0.14558-0.030517-0.2837-0.084736-0.40945l1.7465-1.2242c0.18529 0.17405 0.43271 0.28277 0.70685 0.28277 0.57169 0 1.0351-0.46335 1.0351-1.0352 0-0.5716-0.46342-1.0352-1.0351-1.0352"
         id="path154"
         style="fill:#ff4f12;fill-opacity:1" /><path
         style="color-rendering:auto;text-decoration-color:#000000;color:#000000;font-variant-numeric:normal;shape-rendering:auto;font-variant-ligatures:normal;text-decoration-line:none;font-variant-position:normal;mix-blend-mode:normal;solid-color:#000000;font-feature-settings:normal;shape-padding:0;font-variant-alternates:normal;text-indent:0;dominant-baseline:auto;font-variant-caps:normal;image-rendering:auto;white-space:normal;text-decoration-style:solid;text-orientation:mixed;isolation:auto;text-transform:none;fill:#ff4f12;fill-opacity:1"
         d="m13.488 12.856-0.40912 0.30602 3.8873 5.1987 0.40945-0.30602z"
         id="path156" /><path
         style="color-rendering:auto;text-decoration-color:#000000;color:#000000;font-variant-numeric:normal;shape-rendering:auto;font-variant-ligatures:normal;text-decoration-line:none;font-variant-position:normal;mix-blend-mode:normal;solid-color:#000000;font-feature-settings:normal;shape-padding:0;font-variant-alternates:normal;text-indent:0;dominant-baseline:auto;font-variant-caps:normal;image-rendering:auto;white-space:normal;text-decoration-style:solid;text-orientation:mixed;isolation:auto;text-transform:none;fill:#ff4f12;fill-opacity:1"
         d="m78.706 12.856-3.8873 5.1987 0.40912 0.30602 3.8877-5.1987z"
         id="path158" /><path
         d="m8.4158 68.862c-0.52366 0-0.95207-0.4286-0.95207-0.95217v-2.0886c0-0.52366 0.42842-0.95236 0.95207-0.95236 0.52377 0 0.95229 0.4287 0.95229 0.95236v2.0886c0 0.52356-0.42851 0.95217-0.95229 0.95217"
         id="path160"
         style="fill:#ff4f12;fill-opacity:1" /><path
         d="m7.4704 67.801c-0.24534 0-0.44592-0.20058-0.44592-0.44573v-0.97816c0-0.24534 0.20057-0.44592 0.44592-0.44592 0.24525 0 0.44583 0.20057 0.44583 0.44592v0.97816c0 0.24516-0.20057 0.44573-0.44583 0.44573"
         id="path162"
         style="fill:#ff4f12;fill-opacity:1" /><path
         d="m14.017 64.869c0.52377 0 0.95212 0.4287 0.95212 0.95236v2.0886c0 0.52356-0.42835 0.95217-0.95212 0.95217s-0.95212-0.4286-0.95212-0.95217v-2.0886c0-0.52366 0.42835-0.95236 0.95212-0.95236"
         id="path164"
         style="fill:#ff4f12;fill-opacity:1" /><path
         d="m14.963 65.931c0.24544 0 0.44585 0.20057 0.44585 0.44592v0.97816c0 0.24516-0.20041 0.44573-0.44585 0.44573-0.24497 0-0.44585-0.20058-0.44585-0.44573v-0.97816c0-0.24534 0.20088-0.44592 0.44585-0.44592"
         id="path166"
         style="fill:#ff4f12;fill-opacity:1" /><path
         d="m14.204 65.306-0.37329-0.0308c0.0012-0.01395 0.10265-1.3898-0.70589-2.2666-0.45285-0.49134-1.1128-0.74051-1.9612-0.74051-0.8594 0-1.5242 0.25034-1.9757 0.74401-0.78841 0.86136-0.68041 2.1862-0.67913 2.1995l-0.3731 0.03308c-0.00558-0.06078-0.12267-1.5035 0.77574-2.4855 0.52548-0.57417 1.2833-0.86533 2.2522-0.86533 0.95866 0 1.7116 0.29023 2.2388 0.863 0.91946 0.99948 0.80701 2.4864 0.80164 2.5491"
         id="path168"
         style="fill:#ff4f12;fill-opacity:1" /></g><text
       xml:space="preserve"
       style="font-size:5.33331px;line-height:1.25;font-family:sans-serif;stroke-width:0.999996"
       x="29.052906"
       y="23.481777"
       id="text6318"><tspan
         sodipodi:role="line"
         id="tspan6316"
         x="29.052906"
         y="23.481777"
         style="stroke-width:0.999996">ТЕЛЕМЕТРИЯ</tspan></text></g></svg>
