<?xml version="1.0" encoding="UTF-8" standalone="no"?>
<svg
   xmlns:dc="http://purl.org/dc/elements/1.1/"
   xmlns:cc="http://creativecommons.org/ns#"
   xmlns:rdf="http://www.w3.org/1999/02/22-rdf-syntax-ns#"
   xmlns:svg="http://www.w3.org/2000/svg"
   xmlns="http://www.w3.org/2000/svg"
   xmlns:sodipodi="http://sodipodi.sourceforge.net/DTD/sodipodi-0.dtd"
   xmlns:inkscape="http://www.inkscape.org/namespaces/inkscape"
   height="59.697mm"
   width="59.697mm"
   version="1.1"
   viewBox="0 0 211.52606 211.52604"
   id="svg958"
   sodipodi:docname="visualize.svg"
   inkscape:version="1.0.1 (3bc2e813f5, 2020-09-07)">
  <metadata
     id="metadata964">
    <rdf:RDF>
      <cc:Work
         rdf:about="">
        <dc:format>image/svg+xml</dc:format>
        <dc:type
           rdf:resource="http://purl.org/dc/dcmitype/StillImage" />
      </cc:Work>
    </rdf:RDF>
  </metadata>
  <defs
     id="defs962" />
  <sodipodi:namedview
     pagecolor="#ffffff"
     bordercolor="#666666"
     borderopacity="1"
     objecttolerance="10"
     gridtolerance="10"
     guidetolerance="10"
     inkscape:pageopacity="0"
     inkscape:pageshadow="2"
     inkscape:window-width="1916"
     inkscape:window-height="987"
     id="namedview960"
     showgrid="true"
     inkscape:zoom="1.5110556"
     inkscape:cx="-178.69429"
     inkscape:cy="26.278462"
     inkscape:window-x="1920"
     inkscape:window-y="72"
     inkscape:window-maximized="1"
     inkscape:current-layer="g956"
     inkscape:document-rotation="0">
    <inkscape:grid
       type="xygrid"
       id="grid966" />
  </sodipodi:namedview>
  <g
     transform="translate(-206.84,-294.46)"
     id="g956">
    <rect
       stroke-linejoin="round"
       height="196.53"
       width="196.53"
       stroke="#305680"
       stroke-linecap="round"
       y="301.95999"
       x="214.34"
       stroke-width="15"
       fill="none"
       id="rect922"
       style="stroke:#272e3d;stroke-opacity:1" />
    <g
       transform="matrix(0.96372,0,0,0.96372,9.1937,16.32)"
       id="g936">
      <g
         fill="#305680"
         transform="translate(572,260)"
         id="g932"
         style="fill:#7700ff;fill-opacity:1">
        <path
           d="m -333.96,113.84 v 12.615 c 0,0.76745 0.62355,1.407 1.407,1.407 h 9.753 c 0.76745,0 1.407,-0.62356 1.407,-1.407 v -22.192 l -7.0829,7.0829 c -1.5029,1.4869 -3.4216,2.3503 -5.4841,2.4942 z"
           id="path924"
           style="fill:#7700ff;fill-opacity:1" />
        <path
           d="m -316.54,104.11 v 22.352 c 0,0.76745 0.62355,1.407 1.407,1.407 h 9.753 c 0.76746,0 1.407,-0.62356 1.407,-1.407 v -13.159 c -2.2224,-0.048 -4.3009,-0.92734 -5.8678,-2.4942 z"
           id="path926"
           style="fill:#7700ff;fill-opacity:1" />
        <path
           d="m -299.11,111.91 v 14.55 c 0,0.76745 0.62355,1.407 1.407,1.407 h 9.753 c 0.76745,0 1.407,-0.62356 1.407,-1.407 V 99.615 l -11.176,11.176 c -0.43169,0.43169 -0.89536,0.79943 -1.391,1.1192 z"
           id="path928"
           style="fill:#7700ff;fill-opacity:1" />
        <path
           d="m -270.06,83.114 -11.624,11.624 v 31.721 c 0,0.76745 0.62356,1.407 1.407,1.407 h 9.753 c 0.76745,0 1.407,-0.62356 1.407,-1.407 V 83.993 c -0.31977,-0.2718 -0.5596,-0.51163 -0.73547,-0.67152 z"
           id="path930"
           style="fill:#7700ff;fill-opacity:1" />
      </g>
      <path
         d="m 309.92,322.52 c -0.46367,-0.49565 -1.1672,-0.75147 -2.0625,-0.75147 h -0.25582 c -4.5408,0.20786 -9.0655,0.4317 -13.606,0.63955 -0.60757,0.032 -1.439,0.064 -2.0945,0.71948 -0.20785,0.20786 -0.36773,0.44768 -0.49564,0.73548 -0.67152,1.455 0.2718,2.3983 0.71948,2.846 l 1.1352,1.1512 c 0.78344,0.79943 1.5829,1.5989 2.3823,2.3823 l -27.436,27.452 -12.327,-12.327 c -0.73547,-0.73547 -1.7268,-1.1512 -2.782,-1.1512 -1.0552,0 -2.0306,0.4157 -2.766,1.1512 l -16.42,16.404 c -1.5349,1.5349 -1.5349,4.0131 0,5.548 l 0.73547,0.73547 c 0.73548,0.73548 1.7268,1.1512 2.782,1.1512 1.0552,0 2.0306,-0.4157 2.766,-1.1512 l 12.903,-12.903 12.327,12.327 c 0.73548,0.73548 1.7268,1.1512 2.782,1.1512 1.0552,0 2.0306,-0.4157 2.782,-1.1512 l 30.954,-30.954 3.5015,3.4855 c 0.4157,0.4157 0.99129,0.99129 1.8707,0.99129 0.36774,0 0.73547,-0.0959 1.1192,-0.30378 0.25582,-0.1439 0.47966,-0.30378 0.67152,-0.49565 0.68751,-0.68751 0.81542,-1.5669 0.84739,-2.2544 0.12791,-2.9419 0.27181,-5.8838 0.41571,-8.8417 l 0.20785,-4.4288 c 0.048,-0.92734 -0.15989,-1.6468 -0.65553,-2.1585 z"
         fill="#237de0"
         id="path934"
         style="fill:#ff4f12;fill-opacity:1" />
    </g>
    <g
       transform="matrix(1.0092,0,0,1.0092,-3.9587,-3.5472)"
       id="g942">
      <path
         d="m 384.67,442.38 11.443,23.507 c 0.46533,0.95604 -0.0238,1.7382 -1.0871,1.7382 h -71.791 c -1.0633,0 -1.5525,-0.78215 -1.0871,-1.7382 l 11.443,-23.507 c 0.18203,-0.37389 0.67128,-0.6799 1.0871,-0.6799 h 9.8119 c 0.30237,0 0.71075,0.18931 0.90869,0.41797 0.66569,0.76928 1.3438,1.5208 2.0199,2.2647 0.64214,0.70613 1.2877,1.4215 1.9281,2.1536 h -11.644 c -0.4159,0 -0.90516,0.30589 -1.0871,0.6799 l -7.5806,15.573 h 60.191 l -7.58,-15.573 c -0.18191,-0.37401 -0.67116,-0.6799 -1.0872,-0.6799 h -11.671 c 0.64031,-0.73212 1.2861,-1.4475 1.9282,-2.1536 0.67821,-0.74608 1.3601,-1.4962 2.0273,-2.2657 0.19769,-0.22805 0.60522,-0.417 0.90711,-0.417 h 9.8326 c 0.41567,0 0.9048,0.30577 1.0868,0.6799 z"
         fill="#305680"
         id="path938"
         style="fill:#7700ff;fill-opacity:1" />
      <path
         d="m 359.34,409.48 c -0.61306,-0.008 -1.2341,0.0169 -1.8613,0.0762 -9.8674,0.93273 -16.624,10.493 -14.902,20.254 1.749,9.9148 10.889,12.966 15.426,24.096 0.40875,1.0029 1.8218,1.0089 2.2305,0.006 5.029,-12.344 15.723,-14.753 15.723,-27.598 0,-9.2241 -7.4192,-16.715 -16.615,-16.834 z m -0.2207,7.9434 c 4.9104,0 8.8906,3.9804 8.8906,8.8906 0,4.9104 -3.9802,8.8906 -8.8906,8.8906 -4.9104,0 -8.8906,-3.9802 -8.8906,-8.8906 0,-4.9103 3.9802,-8.8906 8.8906,-8.8906 z"
         fill="#237de0"
         id="path940"
         style="fill:#ff4f12;fill-opacity:1" />
    </g>
    <g
       transform="matrix(0.92743,0,0,0.92743,17.571,36.091)"
       id="g948">
      <path
         d="m 273.85,427.41 c 6.1897,0.24454 12.02,1.8791 17.193,4.6002 l -5.6034,9.7052 c -3.5149,-1.7806 -7.4368,-2.8736 -11.589,-3.1008 z m 20.002,6.2251 c 5.0687,3.2108 9.3741,7.5172 12.585,12.585 l -9.7071,5.6041 c -2.2134,-3.3772 -5.105,-6.2691 -8.4816,-8.4822 z m 14.21,15.395 c 2.7211,5.1713 4.3544,11.003 4.5999,17.192 h -11.205 c -0.22716,-4.1523 -1.3189,-8.0748 -3.0998,-11.589 z m -76.269,17.192 c 0.24486,-6.1893 1.8784,-12.021 4.5999,-17.192 l 9.7049,5.6031 c -1.7809,3.5142 -2.8733,7.4368 -3.1001,11.589 z m 6.2251,-20.002 c 3.2105,-5.0687 7.5169,-9.3735 12.585,-12.585 l 5.6038,9.7065 c -3.3772,2.213 -6.2691,5.105 -8.4825,8.4825 z m 15.394,-14.21 c 5.1716,-2.7221 11.003,-4.3553 17.193,-4.6002 v 11.205 c -4.1523,0.22749 -8.0748,1.3192 -11.589,3.1005 l -5.6031,-9.7049"
         fill="#237de0"
         id="path944"
         style="fill:#ff4f12;fill-opacity:1" />
      <path
         d="m 272.18,469.64 c 0.90237,0.36855 2.0049,-0.0438 2.3099,-0.96911 l 7.8016,-23.762 -11.081,22.421 c -0.4317,0.87417 0.0668,1.9414 0.96911,2.3104"
         fill-rule="evenodd"
         fill="#305680"
         id="path946"
         style="fill:#7700ff;fill-opacity:1" />
    </g>
    <g
       transform="matrix(1.0393,0,0,1.0393,-13.249,-14.828)"
       id="g954"
       style="stroke-width:1.00038;stroke-miterlimit:4;stroke-dasharray:none">
      <path
         d="m 361.97,326.49 c 13.47,0.84189 23.994,11.786 25.256,25.256 H 361.97 Z m -2.1047,-4.2094 h -2.1047 v 33.675 h 33.675 v -2.1047 c 0,-17.259 -14.312,-31.571 -31.571,-31.571 z"
         fill="#237de0"
         id="path950"
         style="fill:#ff4f12;fill-opacity:1;stroke-width:1.00038;stroke-miterlimit:4;stroke-dasharray:none" />
      <path
         d="m 353.55,360.16 v -33.675 c -16.417,1.2628 -29.466,14.733 -29.466,31.571 0,17.259 14.312,31.571 31.571,31.571 16.838,0 30.308,-13.049 31.571,-29.466 z"
         fill="#305680"
         id="path952"
         style="fill:#7700ff;fill-opacity:1;stroke-width:1.00038;stroke-miterlimit:4;stroke-dasharray:none" />
    </g>
  </g>
</svg>
