<?xml version="1.0" encoding="UTF-8" standalone="no"?>
<svg
   xmlns:dc="http://purl.org/dc/elements/1.1/"
   xmlns:cc="http://creativecommons.org/ns#"
   xmlns:rdf="http://www.w3.org/1999/02/22-rdf-syntax-ns#"
   xmlns:svg="http://www.w3.org/2000/svg"
   xmlns="http://www.w3.org/2000/svg"
   xmlns:sodipodi="http://sodipodi.sourceforge.net/DTD/sodipodi-0.dtd"
   xmlns:inkscape="http://www.inkscape.org/namespaces/inkscape"
   data-v-3fdf607d=""
   width="100%"
   height="100%"
   viewBox="0 0 193 50"
   version="1.1"
   id="svg923"
   sodipodi:docname="rt_logo_grey.svg"
   inkscape:version="1.0.1 (3bc2e813f5, 2020-09-07)">
  <metadata
     id="metadata927">
    <rdf:RDF>
      <cc:Work
         rdf:about="">
        <dc:format>image/svg+xml</dc:format>
        <dc:type
           rdf:resource="http://purl.org/dc/dcmitype/StillImage" />
        <dc:title />
      </cc:Work>
    </rdf:RDF>
  </metadata>
  <sodipodi:namedview
     pagecolor="#ffffff"
     bordercolor="#666666"
     borderopacity="1"
     objecttolerance="10"
     gridtolerance="10"
     guidetolerance="10"
     inkscape:pageopacity="0"
     inkscape:pageshadow="2"
     inkscape:window-width="1920"
     inkscape:window-height="1018"
     id="namedview925"
     showgrid="false"
     inkscape:zoom="8.6961583"
     inkscape:cx="107.05496"
     inkscape:cy="45.415265"
     inkscape:window-x="-6"
     inkscape:window-y="-6"
     inkscape:window-maximized="1"
     inkscape:current-layer="layer2"
     inkscape:document-rotation="0"
     showguides="true"
     inkscape:guide-bbox="true">
    <sodipodi:guide
       position="95.031717,28.239561"
       orientation="0,-1"
       id="guide866" />
    <sodipodi:guide
       position="103.5355,37.231478"
       orientation="0,-1"
       id="guide868" />
    <sodipodi:guide
       position="88.84149,37.217856"
       orientation="0,-1"
       id="guide1582" />
    <sodipodi:guide
       position="91.195407,28.163968"
       orientation="0,-1"
       id="guide1584" />
    <sodipodi:guide
       position="108.98341,37.537177"
       orientation="0,-1"
       id="guide876" />
    <sodipodi:guide
       position="110.74315,30.715168"
       orientation="0,-1"
       id="guide878" />
    <sodipodi:guide
       position="105.37328,38.156803"
       orientation="0,-1"
       id="guide880" />
    <sodipodi:guide
       position="94.963737,30.115896"
       orientation="0,-1"
       id="guide882" />
  </sodipodi:namedview>
  <defs
     data-v-3fdf607d=""
     id="defs895">
    <linearGradient
       data-v-3fdf607d=""
       name="logoShadow"
       id="logo-112"
       x1="55.883%"
       x2="14.167%"
       y1="73.973%"
       y2="0%">
      <stop
         data-v-3fdf607d=""
         offset="0%"
         stop-color="#ff4f12"
         id="stop890" />
      <stop
         data-v-3fdf607d=""
         offset="100%"
         stop-color="#000"
         id="stop892" />
    </linearGradient>
  </defs>
  <g
     data-v-3fdf607d=""
     id="logo"
     name="logo"
     fill="none"
     fill-rule="evenodd"
     stroke="none"
     stroke-width="1"
     transform="translate(0, 0)">
    <path
       data-v-3fdf607d=""
       name="innerSide"
       pid="0"
       d="M22,12 C13.7296802,3.99981632 9.59442802,-0.000183678141 9.59424346,0 L1.50568374,8 L1.50568374,8 C0.67361982,9.0972718 0.888613285,10.6613074 1.98588509,11.4933713 C2.41936453,11.8220799 2.94845379,12 3.49247009,12 C3.50604423,12 3.51961837,12 3.53319251,12 C9.68879501,12 15.8443975,12 22,12 Z"
       transform="translate(0.000000, 38.000000)"
       fill="#ff4f12"
       id="path897" />
    <path
       data-v-3fdf607d=""
       name="outerSide"
       pid="1"
       d="M30,18 L12,0 L1.95028875,10.4684492 C0.698836027,11.7720458 9.5486605e-15,13.5091031 9.76996262e-15,15.316172 L3.55271368e-15,46 C3.82325518e-15,48.209139 1.790861,50 4,50 L4,50 L4,50 C2.63136806,50 1.52187266,48.8905046 1.52187266,47.5218727 C1.52187266,46.8629999 1.78425529,46.2312512 2.25103343,45.7662443"
       fill="#7b949b"
       id="path899" />
  </g>
  <g
     data-v-3fdf607d=""
     id="logo_text"
     name="logo_text"
     transform="translate(33.000000, 25.000000) scale(1)"
     fill="#101828"
     fill-rule="evenodd">
    <polygon
       data-v-3fdf607d=""
       points="125.272633 6.17408992 120.944198 6.17408992 115.773594 11.4029891 115.773594 6.17408992 112.113191 6.17408992 112.113191 20.582524 115.773594 20.582524 115.773594 14.6275473 121.031516 20.582524 125.44702 20.582524 118.649377 12.8553922"
       id="polygon902" />
    <path
       data-v-3fdf607d=""
       d="M9.12153798,9.91461705 L3.83434419,9.91461705 L3.83434419,3.52379535 L9.12153798,3.52379535 C11.7939101,3.52379535 13.0141271,4.80181085 13.0141271,6.71908217 C13.0141271,8.63635349 11.7939101,9.91461705 9.12153798,9.91461705 M9.23763101,0.0958263566 L4.96124031e-05,0.0958263566 L4.96124031e-05,20.430462 L3.83434419,20.430462 L3.83434419,13.342338 L9.23763101,13.342338 C13.8275225,13.342338 16.8486698,10.9894698 16.8486698,6.71908217 C16.8486698,2.44869457 13.8275225,0.0958263566 9.23763101,0.0958263566"
       id="path904" />
    <path
       data-v-3fdf607d=""
       d="M25.5039256,17.5614264 C23.3544682,17.5614264 21.3498791,16.0217054 21.3498791,13.3781085 C21.3498791,10.7347597 23.3544682,9.19528682 25.5039256,9.19528682 C27.653631,9.19528682 29.6579721,10.7347597 29.6579721,13.3781085 C29.6579721,16.0217054 27.653631,17.5614264 25.5039256,17.5614264 M25.5039256,5.76731783 C21.5532899,5.76731783 17.6314295,8.32384496 17.6314295,13.3781085 C17.6314295,18.4331163 21.5532899,20.9891473 25.5039256,20.9891473 C29.4548093,20.9891473 33.3764217,18.4331163 33.3764217,13.3781085 C33.3764217,8.32384496 29.4548093,5.76731783 25.5039256,5.76731783"
       id="path906" />
    <path
       data-v-3fdf607d=""
       d="M42.7212403,17.5614264 C40.5134884,17.5614264 38.8866977,15.9636589 38.8866977,13.3781085 C38.8866977,10.8218295 40.5715349,9.19528682 42.7212403,9.19528682 C44.0285271,9.19528682 45.1614264,9.80527132 46.0618915,11.1706047 L49.1991318,9.36942636 C48.1535504,7.1324031 45.8875039,5.76731783 42.7502636,5.76731783 C38.6542636,5.76731783 35.1682481,8.78846512 35.1682481,13.3781085 C35.1682481,17.968 38.480124,20.9891473 42.7502636,20.9891473 C45.8294574,20.9891473 47.891845,19.5950388 49.3444961,17.1258295 L46.3233488,15.4700155 C45.451907,16.6899845 44.5221705,17.5614264 42.7212403,17.5614264"
       id="path908" />
    <path
       data-v-3fdf607d=""
       d="M81.6933953,14.3371659 C81.5192558,16.5446698 81.0829147,17.0388093 80.3275659,17.0388093 C79.8115969,17.0388093 79.5689922,16.981507 79.2157519,16.8889798 L79.2341085,20.6178481 C79.2341085,20.6178481 79.6890543,20.7567628 80.5314729,20.7567628 C83.6396899,20.7567628 84.8016124,18.7524217 85.0923411,14.4822822 L85.4408682,9.4567938 L89.5656434,9.4567938 L89.5656434,20.5536 L93.2260465,20.5536 L93.2260465,6.17418915 L82.3033798,6.17418915 L81.6933953,14.3371659 Z"
       id="path910" />
    <path
       data-v-3fdf607d=""
       d="M67.3025488,11.4612093 C67.8254636,9.8344186 69.2778667,8.55615504 71.195138,8.55615504 C73.2287504,8.55615504 74.5940837,9.66003101 74.9426109,11.4612093 L67.3025488,11.4612093 Z M71.3114791,5.76744186 C67.1284093,5.76744186 63.7294636,8.8176124 63.7294636,13.3782326 C63.7294636,17.9391008 67.1284093,20.9892713 71.1370915,20.9892713 C74.3036031,20.9892713 76.3079442,19.7983256 77.7603473,17.3291163 L74.855293,15.8767132 C73.9548279,17.0096124 73.1414326,17.8517829 71.195138,17.8517829 C69.0456806,17.8517829 67.4769364,16.4576744 67.2445023,14.2499225 L78.3413085,14.2499225 L78.3413085,12.9716589 C78.3413085,8.75956589 75.4365023,5.76744186 71.3114791,5.76744186 L71.3114791,5.76744186 Z"
       id="path912" />
    <path
       data-v-3fdf607d=""
       d="M98.848124,11.4612093 C99.3710388,9.8344186 100.823442,8.55615504 102.740713,8.55615504 C104.774078,8.55615504 106.139411,9.66003101 106.488186,11.4612093 L98.848124,11.4612093 Z M102.857054,5.76744186 C98.6737364,5.76744186 95.2750388,8.8176124 95.2750388,13.3782326 C95.2750388,17.9391008 98.6737364,20.9892713 102.682667,20.9892713 C105.84893,20.9892713 107.853271,19.7983256 109.305922,17.3291163 L106.401116,15.8767132 C105.500403,17.0096124 104.687008,17.8517829 102.740713,17.8517829 C100.591008,17.8517829 99.0222636,16.4576744 98.7900775,14.2499225 L109.886884,14.2499225 L109.886884,12.9716589 C109.886884,8.75956589 106.981829,5.76744186 102.857054,5.76744186 L102.857054,5.76744186 Z"
       id="path914" />
    <polygon
       data-v-3fdf607d=""
       points="50.4830512 9.36940155 54.782462 9.36940155 54.782462 20.5825488 58.442369 20.5825488 58.442369 9.36940155 62.7420279 9.36940155 62.7420279 6.17411473 50.4830512 6.17411473"
       id="polygon916" />
    <path
       data-v-3fdf607d=""
       d="M132.713898,17.5615504 C130.564192,17.5615504 128.559851,16.0218295 128.559851,13.3782326 C128.559851,10.7348837 130.564192,9.19541085 132.713898,9.19541085 C134.863603,9.19541085 136.867944,10.7348837 136.867944,13.3782326 C136.867944,16.0218295 134.863603,17.5615504 132.713898,17.5615504 M132.713898,5.76744186 C128.763262,5.76744186 124.841402,8.32372093 124.841402,13.3782326 C124.841402,18.4329922 128.763262,20.9892713 132.713898,20.9892713 C136.664533,20.9892713 140.586394,18.4329922 140.586394,13.3782326 C140.586394,8.32372093 136.664533,5.76744186 132.713898,5.76744186"
       id="path918" />
    <polygon
       data-v-3fdf607d=""
       points="155.150313 6.17136124 151.177848 16.262276 147.205135 6.17136124 142.421011 6.17136124 142.421011 20.5537488 145.900329 20.5537488 145.900329 11.4486326 149.756949 20.5537488 152.598747 20.5537488 156.455119 11.4486326 156.455119 20.5537488 159.934685 20.5537488 159.934685 6.17136124"
       id="polygon920" />
  </g>
  <g
     inkscape:groupmode="layer"
     id="layer1"
     inkscape:label="background"
     style="display:inline;opacity:1">
    <text
       xml:space="preserve"
       style="font-style:normal;font-variant:normal;font-weight:bold;font-stretch:normal;font-size:9.84927px;line-height:1.25;font-family:sans-serif;-inkscape-font-specification:'sans-serif, Bold';font-variant-ligatures:normal;font-variant-caps:normal;font-variant-numeric:normal;font-variant-east-asian:normal;letter-spacing:0px;word-spacing:0px;fill:#7b949b;fill-opacity:1;stroke-width:0.92336"
       x="106.71514"
       y="20.272532"
       id="text305"
       transform="scale(1.0509304,0.95153779)"><tspan
         sodipodi:role="line"
         id="tspan303"
         x="106.71514"
         y="20.272532"
         style="font-style:normal;font-variant:normal;font-weight:bold;font-stretch:normal;font-size:9.84927px;font-family:sans-serif;-inkscape-font-specification:'sans-serif, Bold';font-variant-ligatures:normal;font-variant-caps:normal;font-variant-numeric:normal;font-variant-east-asian:normal;fill:#7b949b;fill-opacity:1;stroke-width:0.92336">ПЛАТФОРМА</tspan></text>
    <rect
       style="fill:#000000;fill-opacity:0"
       id="rect3527"
       width="45.502865"
       height="19.274309"
       x="60.150028"
       y="5.3007903" />
  </g>
  <g
     inkscape:groupmode="layer"
     id="layer2"
     inkscape:label="IoT"
     style="display:inline">
    <rect
       style="fill:#7b949b;fill-opacity:1;stroke-width:0.78251"
       id="rect3533"
       width="26.089985"
       height="14.012394"
       x="83.637604"
       y="8.8645258" />
    <text
       xml:space="preserve"
       style="font-style:normal;font-variant:normal;font-weight:bold;font-stretch:normal;font-size:9.8374px;line-height:1.25;font-family:sans-serif;-inkscape-font-specification:'sans-serif, Bold';font-variant-ligatures:normal;font-variant-caps:normal;font-variant-numeric:normal;font-variant-east-asian:normal;fill:#ffffff;fill-opacity:1;stroke-width:1.84451"
       x="90.767868"
       y="18.923977"
       id="text886"
       transform="scale(0.97138636,1.0294565)"><tspan
         sodipodi:role="line"
         id="tspan884"
         x="90.767868"
         y="18.923977"
         style="font-style:normal;font-variant:normal;font-weight:bold;font-stretch:normal;font-size:9.8374px;font-family:sans-serif;-inkscape-font-specification:'sans-serif, Bold';font-variant-ligatures:normal;font-variant-caps:normal;font-variant-numeric:normal;font-variant-east-asian:normal;stroke-width:1.84451">IoT</tspan></text>
  </g>
</svg>
