<?xml version="1.0" encoding="UTF-8" standalone="no"?>
<svg
   xmlns:dc="http://purl.org/dc/elements/1.1/"
   xmlns:cc="http://creativecommons.org/ns#"
   xmlns:rdf="http://www.w3.org/1999/02/22-rdf-syntax-ns#"
   xmlns:svg="http://www.w3.org/2000/svg"
   xmlns="http://www.w3.org/2000/svg"
   xmlns:sodipodi="http://sodipodi.sourceforge.net/DTD/sodipodi-0.dtd"
   xmlns:inkscape="http://www.inkscape.org/namespaces/inkscape"
   data-v-f9be3a2e=""
   width="100%"
   height="100%"
   viewBox="0 0 193 50"
   version="1.1"
   id="svg282"
   sodipodi:docname="rt_log.svg"
   inkscape:version="1.0.1 (3bc2e813f5, 2020-09-07)"
   inkscape:export-filename="/home/alf/Documents/Ростелеком/Логотипы/rt_log.png"
   inkscape:export-xdpi="300"
   inkscape:export-ydpi="300">
  <metadata
     id="metadata286">
    <rdf:RDF>
      <cc:Work
         rdf:about="">
        <dc:format>image/svg+xml</dc:format>
        <dc:type
           rdf:resource="http://purl.org/dc/dcmitype/StillImage" />
      </cc:Work>
    </rdf:RDF>
  </metadata>
  <sodipodi:namedview
     pagecolor="#ffffff"
     bordercolor="#666666"
     borderopacity="1"
     objecttolerance="10"
     gridtolerance="10"
     guidetolerance="10"
     inkscape:pageopacity="0"
     inkscape:pageshadow="2"
     inkscape:window-width="1916"
     inkscape:window-height="1023"
     id="namedview284"
     showgrid="false"
     inkscape:zoom="3.8989637"
     inkscape:cx="113.59955"
     inkscape:cy="33.126483"
     inkscape:window-x="1920"
     inkscape:window-y="36"
     inkscape:window-maximized="0"
     inkscape:current-layer="layer1"
     inkscape:document-rotation="0" />
  <defs
     data-v-f9be3a2e=""
     id="defs254">
    <linearGradient
       data-v-f9be3a2e=""
       name="logoShadow"
       id="logo-126"
       x1="55.883%"
       x2="14.167%"
       y1="73.973%"
       y2="0%">
      <stop
         data-v-f9be3a2e=""
         offset="0%"
         stop-color="#ff4f12"
         id="stop249" />
      <stop
         data-v-f9be3a2e=""
         offset="100%"
         stop-color="#BA341C"
         id="stop251" />
    </linearGradient>
  </defs>
  <g
     data-v-f9be3a2e=""
     id="logo"
     name="logo"
     fill="none"
     fill-rule="evenodd"
     stroke="none"
     stroke-width="1"
     transform="translate(0, 0)">
    <path
       data-v-f9be3a2e=""
       name="innerSide"
       pid="0"
       d="M22,12 C13.7296802,3.99981632 9.59442802,-0.000183678141 9.59424346,0 L1.50568374,8 L1.50568374,8 C0.67361982,9.0972718 0.888613285,10.6613074 1.98588509,11.4933713 C2.41936453,11.8220799 2.94845379,12 3.49247009,12 C3.50604423,12 3.51961837,12 3.53319251,12 C9.68879501,12 15.8443975,12 22,12 Z"
       transform="translate(0.000000, 38.000000)"
       fill="#ff4f12"
       id="path256" />
    <path
       data-v-f9be3a2e=""
       name="outerSide"
       pid="1"
       d="M30,18 L12,0 L1.95028875,10.4684492 C0.698836027,11.7720458 9.5486605e-15,13.5091031 9.76996262e-15,15.316172 L3.55271368e-15,46 C3.82325518e-15,48.209139 1.790861,50 4,50 L4,50 L4,50 C2.63136806,50 1.52187266,48.8905046 1.52187266,47.5218727 C1.52187266,46.8629999 1.78425529,46.2312512 2.25103343,45.7662443"
       fill="#7800ff"
       id="path258" />
  </g>
  <g
     data-v-f9be3a2e=""
     id="logo_text"
     name="logo_text"
     transform="translate(31.611373,12.792699)"
     fill="#101828"
     fill-rule="evenodd">
    <polygon
       data-v-f9be3a2e=""
       points="115.77359,6.1740899 112.11319,6.1740899 112.11319,20.582524 115.77359,20.582524 115.77359,14.627547 121.03152,20.582524 125.44702,20.582524 118.64938,12.855392 125.27263,6.1740899 120.9442,6.1740899 115.77359,11.402989 "
       id="polygon261" />
    <path
       data-v-f9be3a2e=""
       d="M 9.121538,9.9146171 H 3.8343442 V 3.5237954 H 9.121538 c 2.672372,0 3.892589,1.2780154 3.892589,3.1952868 0,1.9172713 -1.220217,3.1955349 -3.892589,3.1955349 M 9.237631,0.09582636 H 4.9612403e-5 V 20.430462 H 3.8343442 V 13.342338 H 9.237631 c 4.589892,0 7.611039,-2.352868 7.611039,-6.6232558 0,-4.2703876 -3.021147,-6.62325584 -7.611039,-6.62325584"
       id="path263" />
    <path
       data-v-f9be3a2e=""
       d="m 25.503926,17.561426 c -2.149458,0 -4.154047,-1.539721 -4.154047,-4.183317 0,-2.643349 2.004589,-4.1828222 4.154047,-4.1828222 2.149705,0 4.154046,1.5394732 4.154046,4.1828222 0,2.643596 -2.004341,4.183317 -4.154046,4.183317 m 0,-11.7941082 c -3.950636,0 -7.872497,2.5565272 -7.872497,7.6107912 0,5.055007 3.921861,7.611038 7.872497,7.611038 3.950883,0 7.872496,-2.556031 7.872496,-7.611038 0,-5.054264 -3.921613,-7.6107912 -7.872496,-7.6107912"
       id="path265" />
    <path
       data-v-f9be3a2e=""
       d="m 42.72124,17.561426 c -2.207752,0 -3.834542,-1.597767 -3.834542,-4.183317 0,-2.556279 1.684837,-4.1828222 3.834542,-4.1828222 1.307287,0 2.440186,0.6099845 3.340652,1.9753182 l 3.13724,-1.8011786 C 48.15355,7.1324031 45.887504,5.7673178 42.750264,5.7673178 c -4.096,0 -7.582016,3.0211473 -7.582016,7.6107912 0,4.589891 3.311876,7.611038 7.582016,7.611038 3.079193,0 5.141581,-1.394108 6.594232,-3.863318 l -3.021147,-1.655813 c -0.871442,1.219969 -1.801178,2.09141 -3.602109,2.09141"
       id="path267" />
    <path
       data-v-f9be3a2e=""
       d="m 81.693395,14.337166 c -0.174139,2.207504 -0.61048,2.701643 -1.365829,2.701643 -0.515969,0 -0.758574,-0.0573 -1.111814,-0.149829 l 0.01836,3.728868 c 0,0 0.454945,0.138915 1.297364,0.138915 3.108217,0 4.270139,-2.004341 4.560868,-6.274481 l 0.348527,-5.0254882 h 4.124775 V 20.5536 h 3.660403 V 6.1741891 H 82.30338 Z"
       id="path269" />
    <path
       data-v-f9be3a2e=""
       d="m 67.302549,11.461209 c 0.522915,-1.6267904 1.975318,-2.905054 3.892589,-2.905054 2.033612,0 3.398946,1.103876 3.747473,2.905054 z m 4.00893,-5.6937671 c -4.18307,0 -7.582015,3.0501705 -7.582015,7.6107911 0,4.560868 3.398945,7.611038 7.407627,7.611038 3.166512,0 5.170853,-1.190945 6.623256,-3.660155 l -2.905054,-1.452403 c -0.900465,1.132899 -1.71386,1.97507 -3.660155,1.97507 -2.149457,0 -3.718202,-1.394109 -3.950636,-3.60186 h 11.096806 v -1.278264 c 0,-4.2120931 -2.904806,-7.2042171 -7.029829,-7.2042171 z"
       id="path271" />
    <path
       data-v-f9be3a2e=""
       d="m 98.848124,11.461209 c 0.522915,-1.6267904 1.975316,-2.905054 3.892586,-2.905054 2.03337,0 3.3987,1.103876 3.74748,2.905054 z m 4.008926,-5.6937671 c -4.183314,0 -7.582011,3.0501705 -7.582011,7.6107911 0,4.560868 3.398697,7.611038 7.407631,7.611038 3.16626,0 5.1706,-1.190945 6.62325,-3.660155 l -2.9048,-1.452403 c -0.90072,1.132899 -1.71411,1.97507 -3.66041,1.97507 -2.1497,0 -3.718446,-1.394109 -3.950633,-3.60186 h 11.096803 v -1.278264 c 0,-4.2120931 -2.90505,-7.2042171 -7.02983,-7.2042171 z"
       id="path273" />
    <polygon
       data-v-f9be3a2e=""
       points="62.742028,9.3694015 62.742028,6.1741147 50.483051,6.1741147 50.483051,9.3694015 54.782462,9.3694015 54.782462,20.582549 58.442369,20.582549 58.442369,9.3694015 "
       id="polygon275" />
    <path
       data-v-f9be3a2e=""
       d="m 132.7139,17.56155 c -2.14971,0 -4.15405,-1.539721 -4.15405,-4.183317 0,-2.643349 2.00434,-4.1828221 4.15405,-4.1828221 2.1497,0 4.15404,1.5394731 4.15404,4.1828221 0,2.643596 -2.00434,4.183317 -4.15404,4.183317 m 0,-11.7941081 c -3.95064,0 -7.8725,2.556279 -7.8725,7.6107911 0,5.054759 3.92186,7.611038 7.8725,7.611038 3.95063,0 7.87249,-2.556279 7.87249,-7.611038 0,-5.0545121 -3.92186,-7.6107911 -7.87249,-7.6107911"
       id="path277" />
    <polygon
       data-v-f9be3a2e=""
       points="142.42101,20.553749 145.90033,20.553749 145.90033,11.448633 149.75695,20.553749 152.59875,20.553749 156.45512,11.448633 156.45512,20.553749 159.93469,20.553749 159.93469,6.1713612 155.15031,6.1713612 151.17785,16.262276 147.20514,6.1713612 142.42101,6.1713612 "
       id="polygon279" />
  </g>
  <g
     inkscape:groupmode="layer"
     id="layer1"
     inkscape:label="Layer 1">
    <text
       xml:space="preserve"
       style="font-style:normal;font-variant:normal;font-weight:bold;font-stretch:normal;font-size:15.3863px;line-height:1.25;font-family:'Liberation Sans';-inkscape-font-specification:'Liberation Sans Bold';fill:#000000;stroke-width:1.44246"
       x="89.063217"
       y="49.590786"
       id="text294"
       transform="scale(1.0366873,0.96461104)"><tspan
         sodipodi:role="line"
         id="tspan292"
         x="89.063217"
         y="49.590786"
         style="fill:#000000;stroke-width:1.44246">IoT</tspan></text>
    <text
       xml:space="preserve"
       style="font-style:normal;font-variant:normal;font-weight:bold;font-stretch:normal;font-size:11.0043px;line-height:1.25;font-family:FreeSans;-inkscape-font-specification:'FreeSans Bold';letter-spacing:0px;word-spacing:0px;fill:#000000;stroke-width:1.03164"
       x="120.96458"
       y="46.930767"
       id="text305"
       transform="scale(0.98287092,1.0174276)"><tspan
         sodipodi:role="line"
         id="tspan303"
         x="120.96458"
         y="46.930767"
         style="fill:#000000;stroke-width:1.03164">ПЛАТФОРМА</tspan></text>
  </g>
</svg>
